<mxfile host="app.diagrams.net" modified="2024-01-13T12:26:19.365Z" agent="Mozilla/5.0 (X11; Linux x86_64) AppleWebKit/537.36 (KHTML, like Gecko) Chrome/120.0.0.0 Safari/537.36" etag="FOBB_Lr8EYxlXiN6O-m2" version="22.1.18" type="device">
  <diagram name="Pagina-1" id="qkkbgj-I2_PTk0LpCxcB">
    <mxGraphModel dx="2074" dy="1047" grid="0" gridSize="10" guides="1" tooltips="1" connect="1" arrows="1" fold="1" page="1" pageScale="1" pageWidth="3300" pageHeight="4681" math="0" shadow="0">
      <root>
        <mxCell id="0" />
        <mxCell id="1" parent="0" />
        <mxCell id="AEnNqYOokj_pp7Sw3cZk-94" value="" style="ellipse;shape=cloud;whiteSpace=wrap;html=1;fillColor=#FFFFFF;strokeColor=#6c8ebf;" parent="1" vertex="1">
          <mxGeometry x="612.25" y="2230" width="384" height="113" as="geometry" />
        </mxCell>
        <mxCell id="efXrlnJJaeiBk5NCHxoY-1" value="" style="fontColor=#0066CC;verticalAlign=top;verticalLabelPosition=bottom;labelPosition=center;align=center;html=1;outlineConnect=0;fillColor=#CCCCCC;strokeColor=#6881B3;gradientColor=none;gradientDirection=north;strokeWidth=2;shape=mxgraph.networks.switch;" parent="1" vertex="1">
          <mxGeometry x="800" y="500" width="100" height="30" as="geometry" />
        </mxCell>
        <mxCell id="efXrlnJJaeiBk5NCHxoY-2" value="" style="fontColor=#0066CC;verticalAlign=top;verticalLabelPosition=bottom;labelPosition=center;align=center;html=1;outlineConnect=0;fillColor=#CCCCCC;strokeColor=#6881B3;gradientColor=none;gradientDirection=north;strokeWidth=2;shape=mxgraph.networks.monitor;" parent="1" vertex="1">
          <mxGeometry x="500" y="493" width="80" height="65" as="geometry" />
        </mxCell>
        <mxCell id="efXrlnJJaeiBk5NCHxoY-3" value="" style="fontColor=#0066CC;verticalAlign=top;verticalLabelPosition=bottom;labelPosition=center;align=center;html=1;outlineConnect=0;fillColor=#CCCCCC;strokeColor=#6881B3;gradientColor=none;gradientDirection=north;strokeWidth=2;shape=mxgraph.networks.monitor;" parent="1" vertex="1">
          <mxGeometry x="810" y="270" width="80" height="65" as="geometry" />
        </mxCell>
        <mxCell id="efXrlnJJaeiBk5NCHxoY-4" value="" style="fontColor=#0066CC;verticalAlign=top;verticalLabelPosition=bottom;labelPosition=center;align=center;html=1;outlineConnect=0;fillColor=#CCCCCC;strokeColor=#6881B3;gradientColor=none;gradientDirection=north;strokeWidth=2;shape=mxgraph.networks.monitor;" parent="1" vertex="1">
          <mxGeometry x="1100" y="493" width="80" height="65" as="geometry" />
        </mxCell>
        <mxCell id="efXrlnJJaeiBk5NCHxoY-5" value="" style="endArrow=none;html=1;rounded=0;strokeWidth=2;" parent="1" edge="1">
          <mxGeometry width="50" height="50" relative="1" as="geometry">
            <mxPoint x="920" y="525" as="sourcePoint" />
            <mxPoint x="1090" y="525" as="targetPoint" />
          </mxGeometry>
        </mxCell>
        <mxCell id="efXrlnJJaeiBk5NCHxoY-6" value="" style="endArrow=none;html=1;rounded=0;strokeWidth=2;" parent="1" edge="1">
          <mxGeometry width="50" height="50" relative="1" as="geometry">
            <mxPoint x="600" y="525" as="sourcePoint" />
            <mxPoint x="770" y="525" as="targetPoint" />
          </mxGeometry>
        </mxCell>
        <mxCell id="efXrlnJJaeiBk5NCHxoY-7" value="" style="endArrow=none;html=1;rounded=0;strokeWidth=2;" parent="1" edge="1">
          <mxGeometry width="50" height="50" relative="1" as="geometry">
            <mxPoint x="849.5" y="490" as="sourcePoint" />
            <mxPoint x="849.5" y="350" as="targetPoint" />
          </mxGeometry>
        </mxCell>
        <mxCell id="efXrlnJJaeiBk5NCHxoY-8" value="&lt;font style=&quot;&quot;&gt;&lt;font style=&quot;font-size: 20px;&quot;&gt;Controller&lt;/font&gt;&lt;br&gt;&lt;/font&gt;" style="text;html=1;align=center;verticalAlign=middle;resizable=0;points=[];autosize=1;strokeColor=none;fillColor=none;" parent="1" vertex="1">
          <mxGeometry x="795" y="235" width="110" height="40" as="geometry" />
        </mxCell>
        <mxCell id="efXrlnJJaeiBk5NCHxoY-9" value="&lt;span style=&quot;font-size: 20px;&quot;&gt;h1&lt;br&gt;&lt;/span&gt;" style="text;html=1;align=center;verticalAlign=middle;resizable=0;points=[];autosize=1;strokeColor=none;fillColor=none;" parent="1" vertex="1">
          <mxGeometry x="515" y="453" width="50" height="40" as="geometry" />
        </mxCell>
        <mxCell id="efXrlnJJaeiBk5NCHxoY-10" value="&lt;span style=&quot;font-size: 20px;&quot;&gt;h2&lt;br&gt;&lt;/span&gt;" style="text;html=1;align=center;verticalAlign=middle;resizable=0;points=[];autosize=1;strokeColor=none;fillColor=none;" parent="1" vertex="1">
          <mxGeometry x="1115" y="453" width="50" height="40" as="geometry" />
        </mxCell>
        <mxCell id="efXrlnJJaeiBk5NCHxoY-11" value="&lt;font style=&quot;font-size: 20px;&quot;&gt;eth0&lt;/font&gt;" style="text;html=1;align=center;verticalAlign=middle;resizable=0;points=[];autosize=1;strokeColor=none;fillColor=none;" parent="1" vertex="1">
          <mxGeometry x="570" y="533" width="60" height="40" as="geometry" />
        </mxCell>
        <mxCell id="efXrlnJJaeiBk5NCHxoY-12" value="&lt;font style=&quot;font-size: 20px;&quot;&gt;eth0&lt;/font&gt;" style="text;html=1;align=center;verticalAlign=middle;resizable=0;points=[];autosize=1;strokeColor=none;fillColor=none;" parent="1" vertex="1">
          <mxGeometry x="1040" y="530" width="60" height="40" as="geometry" />
        </mxCell>
        <mxCell id="efXrlnJJaeiBk5NCHxoY-13" value="&lt;font style=&quot;font-size: 20px;&quot;&gt;eth0&lt;/font&gt;" style="text;html=1;align=center;verticalAlign=middle;resizable=0;points=[];autosize=1;strokeColor=none;fillColor=none;" parent="1" vertex="1">
          <mxGeometry x="845" y="335" width="60" height="40" as="geometry" />
        </mxCell>
        <mxCell id="efXrlnJJaeiBk5NCHxoY-14" value="&lt;font style=&quot;font-size: 20px;&quot;&gt;eth0&lt;/font&gt;" style="text;html=1;align=center;verticalAlign=middle;resizable=0;points=[];autosize=1;strokeColor=none;fillColor=none;" parent="1" vertex="1">
          <mxGeometry x="750" y="530" width="60" height="40" as="geometry" />
        </mxCell>
        <mxCell id="efXrlnJJaeiBk5NCHxoY-15" value="&lt;font style=&quot;font-size: 20px;&quot;&gt;eth1&lt;br&gt;&lt;/font&gt;" style="text;html=1;align=center;verticalAlign=middle;resizable=0;points=[];autosize=1;strokeColor=none;fillColor=none;" parent="1" vertex="1">
          <mxGeometry x="880" y="530" width="60" height="40" as="geometry" />
        </mxCell>
        <mxCell id="efXrlnJJaeiBk5NCHxoY-16" value="&lt;font style=&quot;font-size: 20px;&quot;&gt;eth2&lt;br&gt;&lt;/font&gt;" style="text;html=1;align=center;verticalAlign=middle;resizable=0;points=[];autosize=1;strokeColor=none;fillColor=none;" parent="1" vertex="1">
          <mxGeometry x="845" y="460" width="60" height="40" as="geometry" />
        </mxCell>
        <mxCell id="efXrlnJJaeiBk5NCHxoY-17" value="&lt;font style=&quot;font-size: 20px;&quot;&gt;00:00:00:00:00:01&lt;/font&gt;" style="text;html=1;align=center;verticalAlign=middle;resizable=0;points=[];autosize=1;strokeColor=none;fillColor=none;" parent="1" vertex="1">
          <mxGeometry x="466" y="560" width="180" height="40" as="geometry" />
        </mxCell>
        <mxCell id="efXrlnJJaeiBk5NCHxoY-18" value="&lt;font style=&quot;font-size: 20px;&quot;&gt;10.0.1.1/16&lt;/font&gt;" style="text;html=1;align=center;verticalAlign=middle;resizable=0;points=[];autosize=1;strokeColor=none;fillColor=none;" parent="1" vertex="1">
          <mxGeometry x="490" y="590" width="120" height="40" as="geometry" />
        </mxCell>
        <mxCell id="efXrlnJJaeiBk5NCHxoY-21" value="" style="ellipse;shape=cloud;whiteSpace=wrap;html=1;" parent="1" vertex="1">
          <mxGeometry x="750" y="363" width="180" height="90" as="geometry" />
        </mxCell>
        <mxCell id="efXrlnJJaeiBk5NCHxoY-19" value="&lt;font style=&quot;font-size: 20px;&quot;&gt;20.0.1.0/24&lt;br&gt;&lt;/font&gt;" style="text;html=1;align=center;verticalAlign=middle;resizable=0;points=[];autosize=1;strokeColor=none;fillColor=none;" parent="1" vertex="1">
          <mxGeometry x="785" y="388" width="120" height="40" as="geometry" />
        </mxCell>
        <mxCell id="efXrlnJJaeiBk5NCHxoY-22" value="&lt;font style=&quot;font-size: 20px;&quot;&gt;00:00:00:00:00:02&lt;br&gt;&lt;/font&gt;" style="text;html=1;align=center;verticalAlign=middle;resizable=0;points=[];autosize=1;strokeColor=none;fillColor=none;" parent="1" vertex="1">
          <mxGeometry x="1040" y="560" width="180" height="40" as="geometry" />
        </mxCell>
        <mxCell id="efXrlnJJaeiBk5NCHxoY-23" value="&lt;font style=&quot;font-size: 20px;&quot;&gt;10.0.2.2/16&lt;/font&gt;" style="text;html=1;align=center;verticalAlign=middle;resizable=0;points=[];autosize=1;strokeColor=none;fillColor=none;" parent="1" vertex="1">
          <mxGeometry x="1070" y="590" width="120" height="40" as="geometry" />
        </mxCell>
        <mxCell id="efXrlnJJaeiBk5NCHxoY-29" value="" style="endArrow=none;html=1;rounded=0;strokeWidth=2;" parent="1" edge="1">
          <mxGeometry width="50" height="50" relative="1" as="geometry">
            <mxPoint x="1727" y="681" as="sourcePoint" />
            <mxPoint x="1944" y="681" as="targetPoint" />
          </mxGeometry>
        </mxCell>
        <mxCell id="efXrlnJJaeiBk5NCHxoY-30" value="" style="endArrow=none;html=1;rounded=0;strokeWidth=2;entryX=0.07;entryY=0.037;entryDx=0;entryDy=0;entryPerimeter=0;" parent="1" target="efXrlnJJaeiBk5NCHxoY-57" edge="1">
          <mxGeometry width="50" height="50" relative="1" as="geometry">
            <mxPoint x="1670" y="655" as="sourcePoint" />
            <mxPoint x="1768" y="534" as="targetPoint" />
          </mxGeometry>
        </mxCell>
        <mxCell id="efXrlnJJaeiBk5NCHxoY-31" value="" style="endArrow=none;html=1;rounded=0;strokeWidth=2;entryX=0.006;entryY=0.306;entryDx=0;entryDy=0;entryPerimeter=0;" parent="1" target="efXrlnJJaeiBk5NCHxoY-54" edge="1">
          <mxGeometry width="50" height="50" relative="1" as="geometry">
            <mxPoint x="2000" y="659" as="sourcePoint" />
            <mxPoint x="2090" y="532" as="targetPoint" />
          </mxGeometry>
        </mxCell>
        <mxCell id="efXrlnJJaeiBk5NCHxoY-33" value="" style="endArrow=none;html=1;rounded=0;strokeWidth=2;" parent="1" edge="1">
          <mxGeometry width="50" height="50" relative="1" as="geometry">
            <mxPoint x="1822" y="488" as="sourcePoint" />
            <mxPoint x="2039" y="488" as="targetPoint" />
          </mxGeometry>
        </mxCell>
        <mxCell id="efXrlnJJaeiBk5NCHxoY-34" value="&lt;font style=&quot;font-size: 20px;&quot;&gt;s1&lt;/font&gt;" style="text;html=1;align=center;verticalAlign=middle;resizable=0;points=[];autosize=1;strokeColor=none;fillColor=none;" parent="1" vertex="1">
          <mxGeometry x="1603" y="695" width="39" height="36" as="geometry" />
        </mxCell>
        <mxCell id="efXrlnJJaeiBk5NCHxoY-35" value="&lt;font style=&quot;font-size: 20px;&quot;&gt;s2&lt;br&gt;&lt;/font&gt;" style="text;html=1;align=center;verticalAlign=middle;resizable=0;points=[];autosize=1;strokeColor=none;fillColor=none;" parent="1" vertex="1">
          <mxGeometry x="1998" y="698" width="39" height="36" as="geometry" />
        </mxCell>
        <mxCell id="efXrlnJJaeiBk5NCHxoY-36" value="&lt;font style=&quot;font-size: 20px;&quot;&gt;s4&lt;br&gt;&lt;/font&gt;" style="text;html=1;align=center;verticalAlign=middle;resizable=0;points=[];autosize=1;strokeColor=none;fillColor=none;" parent="1" vertex="1">
          <mxGeometry x="1712.5" y="444" width="39" height="36" as="geometry" />
        </mxCell>
        <mxCell id="efXrlnJJaeiBk5NCHxoY-37" value="&lt;font style=&quot;font-size: 20px;&quot;&gt;s3&lt;br&gt;&lt;/font&gt;" style="text;html=1;align=center;verticalAlign=middle;resizable=0;points=[];autosize=1;strokeColor=none;fillColor=none;" parent="1" vertex="1">
          <mxGeometry x="2112" y="444" width="39" height="36" as="geometry" />
        </mxCell>
        <mxCell id="efXrlnJJaeiBk5NCHxoY-39" value="" style="endArrow=none;html=1;rounded=0;strokeWidth=2;fillColor=#dae8fc;strokeColor=#6c8ebf;" parent="1" edge="1">
          <mxGeometry width="50" height="50" relative="1" as="geometry">
            <mxPoint x="1782" y="468" as="sourcePoint" />
            <mxPoint x="1839" y="363" as="targetPoint" />
          </mxGeometry>
        </mxCell>
        <mxCell id="efXrlnJJaeiBk5NCHxoY-41" value="" style="fontColor=#0066CC;verticalAlign=top;verticalLabelPosition=bottom;labelPosition=center;align=center;html=1;outlineConnect=0;fillColor=#CCCCCC;strokeColor=#6881B3;gradientColor=none;gradientDirection=north;strokeWidth=2;shape=mxgraph.networks.monitor;" parent="1" vertex="1">
          <mxGeometry x="1860" y="200" width="80" height="65" as="geometry" />
        </mxCell>
        <mxCell id="efXrlnJJaeiBk5NCHxoY-44" value="" style="endArrow=none;html=1;rounded=0;strokeWidth=2;fillColor=#dae8fc;strokeColor=#6c8ebf;entryX=0.75;entryY=1;entryDx=0;entryDy=0;" parent="1" target="efXrlnJJaeiBk5NCHxoY-63" edge="1">
          <mxGeometry width="50" height="50" relative="1" as="geometry">
            <mxPoint x="1976" y="660" as="sourcePoint" />
            <mxPoint x="1938" y="282" as="targetPoint" />
          </mxGeometry>
        </mxCell>
        <mxCell id="efXrlnJJaeiBk5NCHxoY-45" value="&lt;font style=&quot;font-size: 20px;&quot;&gt;Controller&lt;br&gt;&lt;/font&gt;" style="text;html=1;align=center;verticalAlign=middle;resizable=0;points=[];autosize=1;strokeColor=none;fillColor=none;" parent="1" vertex="1">
          <mxGeometry x="1850" y="161" width="105" height="36" as="geometry" />
        </mxCell>
        <mxCell id="efXrlnJJaeiBk5NCHxoY-46" value="&lt;font style=&quot;font-size: 20px;&quot;&gt;eth2&lt;br&gt;&lt;/font&gt;" style="text;html=1;align=center;verticalAlign=middle;resizable=0;points=[];autosize=1;strokeColor=none;fillColor=none;" parent="1" vertex="1">
          <mxGeometry x="2014" y="436" width="57" height="36" as="geometry" />
        </mxCell>
        <mxCell id="efXrlnJJaeiBk5NCHxoY-47" value="&lt;font style=&quot;font-size: 20px;&quot;&gt;eth2&lt;br&gt;&lt;/font&gt;" style="text;html=1;align=center;verticalAlign=middle;resizable=0;points=[];autosize=1;strokeColor=none;fillColor=none;" parent="1" vertex="1">
          <mxGeometry x="1797" y="440" width="57" height="36" as="geometry" />
        </mxCell>
        <mxCell id="efXrlnJJaeiBk5NCHxoY-48" value="&lt;font style=&quot;font-size: 20px;&quot;&gt;eth2&lt;br&gt;&lt;/font&gt;" style="text;html=1;align=center;verticalAlign=middle;resizable=0;points=[];autosize=1;strokeColor=none;fillColor=none;" parent="1" vertex="1">
          <mxGeometry x="1919" y="629" width="57" height="36" as="geometry" />
        </mxCell>
        <mxCell id="efXrlnJJaeiBk5NCHxoY-49" value="&lt;font style=&quot;font-size: 20px;&quot;&gt;eth2&lt;br&gt;&lt;/font&gt;" style="text;html=1;align=center;verticalAlign=middle;resizable=0;points=[];autosize=1;strokeColor=none;fillColor=none;" parent="1" vertex="1">
          <mxGeometry x="1605" y="615" width="57" height="36" as="geometry" />
        </mxCell>
        <mxCell id="efXrlnJJaeiBk5NCHxoY-50" value="&lt;font style=&quot;font-size: 20px;&quot;&gt;eth0&lt;br&gt;&lt;/font&gt;" style="text;html=1;align=center;verticalAlign=middle;resizable=0;points=[];autosize=1;strokeColor=none;fillColor=none;" parent="1" vertex="1">
          <mxGeometry x="1703" y="676" width="57" height="36" as="geometry" />
        </mxCell>
        <mxCell id="efXrlnJJaeiBk5NCHxoY-51" value="&lt;font style=&quot;font-size: 20px;&quot;&gt;eth1&lt;br&gt;&lt;/font&gt;" style="text;html=1;align=center;verticalAlign=middle;resizable=0;points=[];autosize=1;strokeColor=none;fillColor=none;" parent="1" vertex="1">
          <mxGeometry x="1673" y="627" width="57" height="36" as="geometry" />
        </mxCell>
        <mxCell id="efXrlnJJaeiBk5NCHxoY-52" value="&lt;font style=&quot;font-size: 20px;&quot;&gt;eth0&lt;br&gt;&lt;/font&gt;" style="text;html=1;align=center;verticalAlign=middle;resizable=0;points=[];autosize=1;strokeColor=none;fillColor=none;" parent="1" vertex="1">
          <mxGeometry x="1902" y="676" width="57" height="36" as="geometry" />
        </mxCell>
        <mxCell id="efXrlnJJaeiBk5NCHxoY-62" value="" style="edgeStyle=orthogonalEdgeStyle;rounded=0;orthogonalLoop=1;jettySize=auto;html=1;" parent="1" source="efXrlnJJaeiBk5NCHxoY-53" target="efXrlnJJaeiBk5NCHxoY-61" edge="1">
          <mxGeometry relative="1" as="geometry" />
        </mxCell>
        <mxCell id="efXrlnJJaeiBk5NCHxoY-53" value="&lt;font style=&quot;font-size: 20px;&quot;&gt;eth1&lt;br&gt;&lt;/font&gt;" style="text;html=1;align=center;verticalAlign=middle;resizable=0;points=[];autosize=1;strokeColor=none;fillColor=none;" parent="1" vertex="1">
          <mxGeometry x="2008" y="629" width="57" height="36" as="geometry" />
        </mxCell>
        <mxCell id="efXrlnJJaeiBk5NCHxoY-54" value="&lt;font style=&quot;font-size: 20px;&quot;&gt;eth0&lt;br&gt;&lt;/font&gt;" style="text;html=1;align=center;verticalAlign=middle;resizable=0;points=[];autosize=1;strokeColor=none;fillColor=none;" parent="1" vertex="1">
          <mxGeometry x="2088" y="512" width="57" height="36" as="geometry" />
        </mxCell>
        <mxCell id="efXrlnJJaeiBk5NCHxoY-55" value="&lt;font style=&quot;font-size: 20px;&quot;&gt;eth1&lt;br&gt;&lt;/font&gt;" style="text;html=1;align=center;verticalAlign=middle;resizable=0;points=[];autosize=1;strokeColor=none;fillColor=none;" parent="1" vertex="1">
          <mxGeometry x="1994" y="483" width="57" height="36" as="geometry" />
        </mxCell>
        <mxCell id="efXrlnJJaeiBk5NCHxoY-56" value="&lt;font style=&quot;font-size: 20px;&quot;&gt;eth0&lt;br&gt;&lt;/font&gt;" style="text;html=1;align=center;verticalAlign=middle;resizable=0;points=[];autosize=1;strokeColor=none;fillColor=none;" parent="1" vertex="1">
          <mxGeometry x="1807" y="483" width="57" height="36" as="geometry" />
        </mxCell>
        <mxCell id="efXrlnJJaeiBk5NCHxoY-57" value="&lt;font style=&quot;font-size: 20px;&quot;&gt;eth1&lt;br&gt;&lt;/font&gt;" style="text;html=1;align=center;verticalAlign=middle;resizable=0;points=[];autosize=1;strokeColor=none;fillColor=none;" parent="1" vertex="1">
          <mxGeometry x="1760" y="519" width="57" height="36" as="geometry" />
        </mxCell>
        <mxCell id="efXrlnJJaeiBk5NCHxoY-58" value="" style="fontColor=#0066CC;verticalAlign=top;verticalLabelPosition=bottom;labelPosition=center;align=center;html=1;outlineConnect=0;fillColor=#CCCCCC;strokeColor=#6881B3;gradientColor=none;gradientDirection=north;strokeWidth=2;shape=mxgraph.networks.switch;" parent="1" vertex="1">
          <mxGeometry x="1712" y="480" width="100" height="30" as="geometry" />
        </mxCell>
        <mxCell id="efXrlnJJaeiBk5NCHxoY-59" value="" style="fontColor=#0066CC;verticalAlign=top;verticalLabelPosition=bottom;labelPosition=center;align=center;html=1;outlineConnect=0;fillColor=#CCCCCC;strokeColor=#6881B3;gradientColor=none;gradientDirection=north;strokeWidth=2;shape=mxgraph.networks.switch;" parent="1" vertex="1">
          <mxGeometry x="2055" y="480" width="100" height="30" as="geometry" />
        </mxCell>
        <mxCell id="efXrlnJJaeiBk5NCHxoY-60" value="" style="fontColor=#0066CC;verticalAlign=top;verticalLabelPosition=bottom;labelPosition=center;align=center;html=1;outlineConnect=0;fillColor=#CCCCCC;strokeColor=#6881B3;gradientColor=none;gradientDirection=north;strokeWidth=2;shape=mxgraph.networks.switch;" parent="1" vertex="1">
          <mxGeometry x="1605" y="665" width="100" height="30" as="geometry" />
        </mxCell>
        <mxCell id="efXrlnJJaeiBk5NCHxoY-61" value="" style="fontColor=#0066CC;verticalAlign=top;verticalLabelPosition=bottom;labelPosition=center;align=center;html=1;outlineConnect=0;fillColor=#CCCCCC;strokeColor=#6881B3;gradientColor=none;gradientDirection=north;strokeWidth=2;shape=mxgraph.networks.switch;" parent="1" vertex="1">
          <mxGeometry x="1959" y="671" width="100" height="30" as="geometry" />
        </mxCell>
        <mxCell id="efXrlnJJaeiBk5NCHxoY-64" value="" style="ellipse;shape=cloud;whiteSpace=wrap;html=1;fillColor=#FFFFFF;strokeColor=#6c8ebf;" parent="1" vertex="1">
          <mxGeometry x="1703" y="301" width="384" height="113" as="geometry" />
        </mxCell>
        <mxCell id="efXrlnJJaeiBk5NCHxoY-66" value="" style="endArrow=none;html=1;rounded=0;strokeWidth=2;fillColor=#dae8fc;strokeColor=#6c8ebf;entryX=0.167;entryY=0.785;entryDx=0;entryDy=0;entryPerimeter=0;exitX=0.924;exitY=1.037;exitDx=0;exitDy=0;exitPerimeter=0;" parent="1" source="efXrlnJJaeiBk5NCHxoY-49" target="efXrlnJJaeiBk5NCHxoY-64" edge="1">
          <mxGeometry width="50" height="50" relative="1" as="geometry">
            <mxPoint x="1650" y="468" as="sourcePoint" />
            <mxPoint x="1645" y="385" as="targetPoint" />
            <Array as="points">
              <mxPoint x="1686" y="466" />
            </Array>
          </mxGeometry>
        </mxCell>
        <mxCell id="efXrlnJJaeiBk5NCHxoY-68" value="" style="endArrow=none;html=1;rounded=0;strokeWidth=2;fillColor=#dae8fc;strokeColor=#6c8ebf;" parent="1" edge="1">
          <mxGeometry width="50" height="50" relative="1" as="geometry">
            <mxPoint x="2091" y="476" as="sourcePoint" />
            <mxPoint x="2041" y="387" as="targetPoint" />
          </mxGeometry>
        </mxCell>
        <UserObject label="20.0.1.0/24" id="efXrlnJJaeiBk5NCHxoY-63">
          <mxCell style="text;whiteSpace=wrap;fontSize=20;" parent="1" vertex="1">
            <mxGeometry x="1843" y="342" width="130.5" height="36" as="geometry" />
          </mxCell>
        </UserObject>
        <mxCell id="efXrlnJJaeiBk5NCHxoY-69" value="" style="endArrow=none;html=1;rounded=0;strokeWidth=2;fillColor=#dae8fc;strokeColor=#6c8ebf;" parent="1" edge="1">
          <mxGeometry width="50" height="50" relative="1" as="geometry">
            <mxPoint x="1901" y="308" as="sourcePoint" />
            <mxPoint x="1899" y="270" as="targetPoint" />
          </mxGeometry>
        </mxCell>
        <mxCell id="efXrlnJJaeiBk5NCHxoY-70" value="&lt;font style=&quot;font-size: 20px;&quot;&gt;eth0&lt;br&gt;&lt;/font&gt;" style="text;html=1;align=center;verticalAlign=middle;resizable=0;points=[];autosize=1;strokeColor=none;fillColor=none;" parent="1" vertex="1">
          <mxGeometry x="1898" y="259" width="57" height="36" as="geometry" />
        </mxCell>
        <mxCell id="efXrlnJJaeiBk5NCHxoY-71" value="&lt;font style=&quot;font-size: 20px;&quot;&gt;.100&lt;br&gt;&lt;/font&gt;" style="text;html=1;align=center;verticalAlign=middle;resizable=0;points=[];autosize=1;strokeColor=none;fillColor=none;" parent="1" vertex="1">
          <mxGeometry x="1834" y="261" width="57" height="36" as="geometry" />
        </mxCell>
        <mxCell id="efXrlnJJaeiBk5NCHxoY-72" value="&lt;font style=&quot;font-size: 20px;&quot;&gt;.4&lt;br&gt;&lt;/font&gt;" style="text;html=1;align=center;verticalAlign=middle;resizable=0;points=[];autosize=1;strokeColor=none;fillColor=none;" parent="1" vertex="1">
          <mxGeometry x="1760" y="429" width="35" height="36" as="geometry" />
        </mxCell>
        <mxCell id="efXrlnJJaeiBk5NCHxoY-73" value="&lt;font style=&quot;font-size: 20px;&quot;&gt;.1&lt;br&gt;&lt;/font&gt;" style="text;html=1;align=center;verticalAlign=middle;resizable=0;points=[];autosize=1;strokeColor=none;fillColor=none;" parent="1" vertex="1">
          <mxGeometry x="1633" y="588" width="35" height="36" as="geometry" />
        </mxCell>
        <mxCell id="efXrlnJJaeiBk5NCHxoY-74" value="&lt;font style=&quot;font-size: 20px;&quot;&gt;.2&lt;br&gt;&lt;/font&gt;" style="text;html=1;align=center;verticalAlign=middle;resizable=0;points=[];autosize=1;strokeColor=none;fillColor=none;" parent="1" vertex="1">
          <mxGeometry x="1966" y="609" width="35" height="36" as="geometry" />
        </mxCell>
        <mxCell id="efXrlnJJaeiBk5NCHxoY-75" value="&lt;font style=&quot;font-size: 20px;&quot;&gt;.3&lt;br&gt;&lt;/font&gt;" style="text;html=1;align=center;verticalAlign=middle;resizable=0;points=[];autosize=1;strokeColor=none;fillColor=none;" parent="1" vertex="1">
          <mxGeometry x="2075" y="424" width="35" height="36" as="geometry" />
        </mxCell>
        <mxCell id="pTCAKiWSWJhNQXC4PXRn-1" value="" style="endArrow=none;html=1;rounded=0;strokeWidth=2;" parent="1" edge="1">
          <mxGeometry width="50" height="50" relative="1" as="geometry">
            <mxPoint x="527.25" y="1516" as="sourcePoint" />
            <mxPoint x="885.25" y="1354" as="targetPoint" />
            <Array as="points">
              <mxPoint x="793.25" y="1398" />
            </Array>
          </mxGeometry>
        </mxCell>
        <mxCell id="pTCAKiWSWJhNQXC4PXRn-2" value="" style="endArrow=none;html=1;rounded=0;strokeWidth=2;entryX=0.07;entryY=0.037;entryDx=0;entryDy=0;entryPerimeter=0;" parent="1" edge="1">
          <mxGeometry width="50" height="50" relative="1" as="geometry">
            <mxPoint x="487.25" y="1493" as="sourcePoint" />
            <mxPoint x="574.24" y="1358.3319999999999" as="targetPoint" />
          </mxGeometry>
        </mxCell>
        <mxCell id="pTCAKiWSWJhNQXC4PXRn-3" value="" style="endArrow=none;html=1;rounded=0;strokeWidth=2;entryX=0.006;entryY=0.306;entryDx=0;entryDy=0;entryPerimeter=0;" parent="1" target="pTCAKiWSWJhNQXC4PXRn-22" edge="1">
          <mxGeometry width="50" height="50" relative="1" as="geometry">
            <mxPoint x="1026.25" y="1500" as="sourcePoint" />
            <mxPoint x="907.25" y="1370" as="targetPoint" />
          </mxGeometry>
        </mxCell>
        <mxCell id="pTCAKiWSWJhNQXC4PXRn-4" value="" style="endArrow=none;html=1;rounded=0;strokeWidth=2;" parent="1" edge="1">
          <mxGeometry width="50" height="50" relative="1" as="geometry">
            <mxPoint x="627.25" y="1351.0100000000002" as="sourcePoint" />
            <mxPoint x="987.25" y="1509" as="targetPoint" />
          </mxGeometry>
        </mxCell>
        <mxCell id="pTCAKiWSWJhNQXC4PXRn-5" value="&lt;font style=&quot;font-size: 22px;&quot;&gt;s1&lt;/font&gt;" style="text;html=1;align=center;verticalAlign=middle;resizable=0;points=[];autosize=1;strokeColor=#d6b656;fillColor=#fff2cc;" parent="1" vertex="1">
          <mxGeometry x="380.25" y="1476" width="41" height="38" as="geometry" />
        </mxCell>
        <mxCell id="pTCAKiWSWJhNQXC4PXRn-6" value="&lt;font style=&quot;&quot;&gt;&lt;font style=&quot;font-size: 22px;&quot;&gt;s2&lt;/font&gt;&lt;br&gt;&lt;/font&gt;" style="text;html=1;align=center;verticalAlign=middle;resizable=0;points=[];autosize=1;strokeColor=#d6b656;fillColor=#fff2cc;" parent="1" vertex="1">
          <mxGeometry x="1101.25" y="1489" width="41" height="38" as="geometry" />
        </mxCell>
        <mxCell id="pTCAKiWSWJhNQXC4PXRn-7" value="&lt;font style=&quot;&quot;&gt;&lt;font style=&quot;font-size: 22px;&quot;&gt;s4&lt;/font&gt;&lt;br&gt;&lt;/font&gt;" style="text;html=1;align=center;verticalAlign=middle;resizable=0;points=[];autosize=1;strokeColor=#d6b656;fillColor=#fff2cc;" parent="1" vertex="1">
          <mxGeometry x="967.25" y="1302" width="41" height="38" as="geometry" />
        </mxCell>
        <mxCell id="pTCAKiWSWJhNQXC4PXRn-8" value="&lt;font style=&quot;&quot;&gt;&lt;font style=&quot;font-size: 22px;&quot;&gt;s3&lt;/font&gt;&lt;br&gt;&lt;/font&gt;" style="text;html=1;align=center;verticalAlign=middle;resizable=0;points=[];autosize=1;strokeColor=#d6b656;fillColor=#fff2cc;" parent="1" vertex="1">
          <mxGeometry x="489.25" y="1294" width="41" height="38" as="geometry" />
        </mxCell>
        <mxCell id="pTCAKiWSWJhNQXC4PXRn-9" value="" style="endArrow=none;html=1;rounded=0;strokeWidth=2;fillColor=#dae8fc;strokeColor=#6c8ebf;" parent="1" source="pTCAKiWSWJhNQXC4PXRn-26" edge="1">
          <mxGeometry width="50" height="50" relative="1" as="geometry">
            <mxPoint x="599.25" y="1306" as="sourcePoint" />
            <mxPoint x="656.25" y="1201" as="targetPoint" />
          </mxGeometry>
        </mxCell>
        <mxCell id="pTCAKiWSWJhNQXC4PXRn-10" value="" style="fontColor=#0066CC;verticalAlign=top;verticalLabelPosition=bottom;labelPosition=center;align=center;html=1;outlineConnect=0;fillColor=#CCCCCC;strokeColor=#6881B3;gradientColor=none;gradientDirection=north;strokeWidth=2;shape=mxgraph.networks.monitor;" parent="1" vertex="1">
          <mxGeometry x="686.25" y="1038" width="80" height="65" as="geometry" />
        </mxCell>
        <mxCell id="pTCAKiWSWJhNQXC4PXRn-12" value="&lt;font style=&quot;font-size: 20px;&quot;&gt;Controller&lt;br&gt;&lt;/font&gt;" style="text;html=1;align=center;verticalAlign=middle;resizable=0;points=[];autosize=1;strokeColor=#d79b00;fillColor=#ffe6cc;" parent="1" vertex="1">
          <mxGeometry x="673.75" y="1002" width="105" height="36" as="geometry" />
        </mxCell>
        <mxCell id="pTCAKiWSWJhNQXC4PXRn-13" value="&lt;font style=&quot;font-size: 20px;&quot;&gt;eth1&lt;br&gt;&lt;/font&gt;" style="text;html=1;align=center;verticalAlign=middle;resizable=0;points=[];autosize=1;strokeColor=none;fillColor=none;" parent="1" vertex="1">
          <mxGeometry x="821.25" y="1329" width="57" height="36" as="geometry" />
        </mxCell>
        <mxCell id="pTCAKiWSWJhNQXC4PXRn-17" value="&lt;font style=&quot;font-size: 20px;&quot;&gt;eth0&lt;br&gt;&lt;/font&gt;" style="text;html=1;align=center;verticalAlign=middle;resizable=0;points=[];autosize=1;strokeColor=none;fillColor=none;" parent="1" vertex="1">
          <mxGeometry x="391.25" y="1533" width="57" height="36" as="geometry" />
        </mxCell>
        <mxCell id="pTCAKiWSWJhNQXC4PXRn-19" value="&lt;font style=&quot;font-size: 20px;&quot;&gt;eth0&lt;br&gt;&lt;/font&gt;" style="text;html=1;align=center;verticalAlign=middle;resizable=0;points=[];autosize=1;strokeColor=none;fillColor=none;" parent="1" vertex="1">
          <mxGeometry x="972.25" y="1536" width="57" height="36" as="geometry" />
        </mxCell>
        <mxCell id="pTCAKiWSWJhNQXC4PXRn-21" value="&lt;font style=&quot;font-size: 20px;&quot;&gt;eth1&lt;br&gt;&lt;/font&gt;" style="text;html=1;align=center;verticalAlign=middle;resizable=0;points=[];autosize=1;strokeColor=none;fillColor=none;" parent="1" vertex="1">
          <mxGeometry x="1069.25" y="1536" width="57" height="36" as="geometry" />
        </mxCell>
        <mxCell id="pTCAKiWSWJhNQXC4PXRn-22" value="&lt;font style=&quot;font-size: 20px;&quot;&gt;eth0&lt;br&gt;&lt;/font&gt;" style="text;html=1;align=center;verticalAlign=middle;resizable=0;points=[];autosize=1;strokeColor=none;fillColor=none;" parent="1" vertex="1">
          <mxGeometry x="968.25" y="1343" width="57" height="36" as="geometry" />
        </mxCell>
        <mxCell id="pTCAKiWSWJhNQXC4PXRn-24" value="&lt;font style=&quot;font-size: 20px;&quot;&gt;eth0&lt;br&gt;&lt;/font&gt;" style="text;html=1;align=center;verticalAlign=middle;resizable=0;points=[];autosize=1;strokeColor=none;fillColor=none;" parent="1" vertex="1">
          <mxGeometry x="515.25" y="1341" width="57" height="36" as="geometry" />
        </mxCell>
        <mxCell id="pTCAKiWSWJhNQXC4PXRn-26" value="" style="fontColor=#0066CC;verticalAlign=top;verticalLabelPosition=bottom;labelPosition=center;align=center;html=1;outlineConnect=0;fillColor=#CCCCCC;strokeColor=#6881B3;gradientColor=none;gradientDirection=north;strokeWidth=2;shape=mxgraph.networks.switch;" parent="1" vertex="1">
          <mxGeometry x="529.25" y="1318" width="100" height="30" as="geometry" />
        </mxCell>
        <mxCell id="pTCAKiWSWJhNQXC4PXRn-27" value="" style="fontColor=#0066CC;verticalAlign=top;verticalLabelPosition=bottom;labelPosition=center;align=center;html=1;outlineConnect=0;fillColor=#CCCCCC;strokeColor=#6881B3;gradientColor=none;gradientDirection=north;strokeWidth=2;shape=mxgraph.networks.switch;" parent="1" vertex="1">
          <mxGeometry x="872.25" y="1318" width="100" height="30" as="geometry" />
        </mxCell>
        <mxCell id="pTCAKiWSWJhNQXC4PXRn-28" value="" style="fontColor=#0066CC;verticalAlign=top;verticalLabelPosition=bottom;labelPosition=center;align=center;html=1;outlineConnect=0;fillColor=#CCCCCC;strokeColor=#6881B3;gradientColor=none;gradientDirection=north;strokeWidth=2;shape=mxgraph.networks.switch;" parent="1" vertex="1">
          <mxGeometry x="422.25" y="1503" width="100" height="30" as="geometry" />
        </mxCell>
        <mxCell id="pTCAKiWSWJhNQXC4PXRn-29" value="" style="fontColor=#0066CC;verticalAlign=top;verticalLabelPosition=bottom;labelPosition=center;align=center;html=1;outlineConnect=0;fillColor=#CCCCCC;strokeColor=#6881B3;gradientColor=none;gradientDirection=north;strokeWidth=2;shape=mxgraph.networks.switch;" parent="1" vertex="1">
          <mxGeometry x="996.25" y="1509" width="100" height="30" as="geometry" />
        </mxCell>
        <mxCell id="pTCAKiWSWJhNQXC4PXRn-30" value="" style="ellipse;shape=cloud;whiteSpace=wrap;html=1;fillColor=#FFFFFF;strokeColor=#6c8ebf;" parent="1" vertex="1">
          <mxGeometry x="534.25" y="1135" width="384" height="113" as="geometry" />
        </mxCell>
        <mxCell id="pTCAKiWSWJhNQXC4PXRn-31" value="" style="endArrow=none;html=1;rounded=0;strokeWidth=2;fillColor=#dae8fc;strokeColor=#6c8ebf;exitX=0.959;exitY=1.019;exitDx=0;exitDy=0;exitPerimeter=0;" parent="1" source="pTCAKiWSWJhNQXC4PXRn-65" edge="1">
          <mxGeometry width="50" height="50" relative="1" as="geometry">
            <mxPoint x="467.25" y="1306" as="sourcePoint" />
            <mxPoint x="573.25" y="1212" as="targetPoint" />
            <Array as="points">
              <mxPoint x="463.25" y="1277" />
            </Array>
          </mxGeometry>
        </mxCell>
        <mxCell id="pTCAKiWSWJhNQXC4PXRn-32" value="" style="endArrow=none;html=1;rounded=0;strokeWidth=2;fillColor=#dae8fc;strokeColor=#6c8ebf;" parent="1" source="pTCAKiWSWJhNQXC4PXRn-27" edge="1">
          <mxGeometry width="50" height="50" relative="1" as="geometry">
            <mxPoint x="898.25" y="1314" as="sourcePoint" />
            <mxPoint x="832.25" y="1229" as="targetPoint" />
          </mxGeometry>
        </mxCell>
        <UserObject label="20.0.0.0/24" id="pTCAKiWSWJhNQXC4PXRn-33">
          <mxCell style="text;whiteSpace=wrap;fontSize=20;" parent="1" vertex="1">
            <mxGeometry x="661" y="1181" width="130.5" height="36" as="geometry" />
          </mxCell>
        </UserObject>
        <mxCell id="pTCAKiWSWJhNQXC4PXRn-34" value="" style="endArrow=none;html=1;rounded=0;strokeWidth=2;fillColor=#dae8fc;strokeColor=#6c8ebf;exitX=0.5;exitY=0.112;exitDx=0;exitDy=0;exitPerimeter=0;" parent="1" source="pTCAKiWSWJhNQXC4PXRn-30" target="pTCAKiWSWJhNQXC4PXRn-10" edge="1">
          <mxGeometry width="50" height="50" relative="1" as="geometry">
            <mxPoint x="718.25" y="1146" as="sourcePoint" />
            <mxPoint x="716.25" y="1108" as="targetPoint" />
            <Array as="points" />
          </mxGeometry>
        </mxCell>
        <mxCell id="pTCAKiWSWJhNQXC4PXRn-35" value="&lt;font style=&quot;font-size: 20px;&quot;&gt;eth0&lt;br&gt;&lt;/font&gt;" style="text;html=1;align=center;verticalAlign=middle;resizable=0;points=[];autosize=1;strokeColor=none;fillColor=none;" parent="1" vertex="1">
          <mxGeometry x="742.25" y="1106" width="57" height="36" as="geometry" />
        </mxCell>
        <mxCell id="pTCAKiWSWJhNQXC4PXRn-36" value="&lt;font style=&quot;font-size: 20px;&quot;&gt;.100&lt;br&gt;&lt;/font&gt;" style="text;html=1;align=center;verticalAlign=middle;resizable=0;points=[];autosize=1;strokeColor=none;fillColor=none;" parent="1" vertex="1">
          <mxGeometry x="651.25" y="1099" width="57" height="36" as="geometry" />
        </mxCell>
        <mxCell id="pTCAKiWSWJhNQXC4PXRn-37" value="&lt;font style=&quot;font-size: 20px;&quot;&gt;.3&lt;br&gt;&lt;/font&gt;" style="text;html=1;align=center;verticalAlign=middle;resizable=0;points=[];autosize=1;strokeColor=none;fillColor=none;" parent="1" vertex="1">
          <mxGeometry x="559.75" y="1262" width="35" height="36" as="geometry" />
        </mxCell>
        <mxCell id="pTCAKiWSWJhNQXC4PXRn-39" value="&lt;font style=&quot;font-size: 20px;&quot;&gt;.2&lt;br&gt;&lt;/font&gt;" style="text;html=1;align=center;verticalAlign=middle;resizable=0;points=[];autosize=1;strokeColor=none;fillColor=none;" parent="1" vertex="1">
          <mxGeometry x="1054.25" y="1456" width="35" height="36" as="geometry" />
        </mxCell>
        <mxCell id="pTCAKiWSWJhNQXC4PXRn-40" value="&lt;font style=&quot;font-size: 20px;&quot;&gt;.4&lt;br&gt;&lt;/font&gt;" style="text;html=1;align=center;verticalAlign=middle;resizable=0;points=[];autosize=1;strokeColor=none;fillColor=none;" parent="1" vertex="1">
          <mxGeometry x="892.25" y="1262" width="35" height="36" as="geometry" />
        </mxCell>
        <mxCell id="pTCAKiWSWJhNQXC4PXRn-43" value="" style="endArrow=none;html=1;rounded=0;strokeWidth=2;fillColor=#dae8fc;strokeColor=#6c8ebf;entryX=0.943;entryY=0.737;entryDx=0;entryDy=0;entryPerimeter=0;" parent="1" target="pTCAKiWSWJhNQXC4PXRn-30" edge="1">
          <mxGeometry width="50" height="50" relative="1" as="geometry">
            <mxPoint x="1054.25" y="1508" as="sourcePoint" />
            <mxPoint x="968.25" y="1202" as="targetPoint" />
            <Array as="points">
              <mxPoint x="1050.25" y="1297" />
            </Array>
          </mxGeometry>
        </mxCell>
        <mxCell id="pTCAKiWSWJhNQXC4PXRn-45" value="" style="endArrow=none;html=1;rounded=0;strokeWidth=2;entryX=0.07;entryY=0.037;entryDx=0;entryDy=0;entryPerimeter=0;" parent="1" edge="1">
          <mxGeometry width="50" height="50" relative="1" as="geometry">
            <mxPoint x="385.25" y="1639" as="sourcePoint" />
            <mxPoint x="458.25" y="1541" as="targetPoint" />
          </mxGeometry>
        </mxCell>
        <mxCell id="pTCAKiWSWJhNQXC4PXRn-46" value="" style="endArrow=none;html=1;rounded=0;strokeWidth=2;entryX=0.07;entryY=0.037;entryDx=0;entryDy=0;entryPerimeter=0;" parent="1" edge="1">
          <mxGeometry width="50" height="50" relative="1" as="geometry">
            <mxPoint x="960.25" y="1648" as="sourcePoint" />
            <mxPoint x="1033.25" y="1550" as="targetPoint" />
          </mxGeometry>
        </mxCell>
        <mxCell id="pTCAKiWSWJhNQXC4PXRn-47" value="" style="endArrow=none;html=1;rounded=0;strokeWidth=2;entryX=0.07;entryY=0.037;entryDx=0;entryDy=0;entryPerimeter=0;" parent="1" edge="1">
          <mxGeometry width="50" height="50" relative="1" as="geometry">
            <mxPoint x="546.25" y="1633" as="sourcePoint" />
            <mxPoint x="479.25" y="1543" as="targetPoint" />
          </mxGeometry>
        </mxCell>
        <mxCell id="pTCAKiWSWJhNQXC4PXRn-48" value="" style="endArrow=none;html=1;rounded=0;strokeWidth=2;entryX=0.07;entryY=0.037;entryDx=0;entryDy=0;entryPerimeter=0;" parent="1" edge="1">
          <mxGeometry width="50" height="50" relative="1" as="geometry">
            <mxPoint x="1130.25" y="1640" as="sourcePoint" />
            <mxPoint x="1063.25" y="1550" as="targetPoint" />
          </mxGeometry>
        </mxCell>
        <mxCell id="pTCAKiWSWJhNQXC4PXRn-49" value="&lt;font style=&quot;font-size: 22px;&quot;&gt;h1&lt;/font&gt;" style="text;html=1;align=center;verticalAlign=middle;resizable=0;points=[];autosize=1;strokeColor=#82b366;fillColor=#d5e8d4;" parent="1" vertex="1">
          <mxGeometry x="356" y="1695.2800000000002" width="42" height="38" as="geometry" />
        </mxCell>
        <mxCell id="pTCAKiWSWJhNQXC4PXRn-50" value="&lt;font style=&quot;&quot;&gt;&lt;font style=&quot;font-size: 22px;&quot;&gt;h2&lt;/font&gt;&lt;br&gt;&lt;/font&gt;" style="text;html=1;align=center;verticalAlign=middle;resizable=0;points=[];autosize=1;strokeColor=#82b366;fillColor=#d5e8d4;" parent="1" vertex="1">
          <mxGeometry x="525.25" y="1693.2800000000002" width="42" height="38" as="geometry" />
        </mxCell>
        <mxCell id="pTCAKiWSWJhNQXC4PXRn-51" value="&lt;font style=&quot;font-size: 22px;&quot;&gt;h3&lt;/font&gt;" style="text;html=1;align=center;verticalAlign=middle;resizable=0;points=[];autosize=1;strokeColor=#82b366;fillColor=#d5e8d4;" parent="1" vertex="1">
          <mxGeometry x="939" y="1693.2800000000002" width="42" height="38" as="geometry" />
        </mxCell>
        <mxCell id="pTCAKiWSWJhNQXC4PXRn-52" value="&lt;font style=&quot;font-size: 22px;&quot;&gt;h4&lt;/font&gt;" style="text;html=1;align=center;verticalAlign=middle;resizable=0;points=[];autosize=1;strokeColor=#82b366;fillColor=#d5e8d4;" parent="1" vertex="1">
          <mxGeometry x="1120.5" y="1693.2800000000002" width="42" height="38" as="geometry" />
        </mxCell>
        <mxCell id="pTCAKiWSWJhNQXC4PXRn-53" value="" style="image;sketch=0;aspect=fixed;html=1;points=[];align=center;fontSize=12;image=img/lib/mscae/Managed_Desktop.svg;" parent="1" vertex="1">
          <mxGeometry x="346.25" y="1655" width="61.5" height="44.28" as="geometry" />
        </mxCell>
        <mxCell id="pTCAKiWSWJhNQXC4PXRn-54" value="" style="image;sketch=0;aspect=fixed;html=1;points=[];align=center;fontSize=12;image=img/lib/mscae/Managed_Desktop.svg;" parent="1" vertex="1">
          <mxGeometry x="515.25" y="1652" width="61.5" height="44.28" as="geometry" />
        </mxCell>
        <mxCell id="pTCAKiWSWJhNQXC4PXRn-55" value="" style="image;sketch=0;aspect=fixed;html=1;points=[];align=center;fontSize=12;image=img/lib/mscae/Managed_Desktop.svg;" parent="1" vertex="1">
          <mxGeometry x="929.25" y="1650" width="61.5" height="44.28" as="geometry" />
        </mxCell>
        <mxCell id="pTCAKiWSWJhNQXC4PXRn-57" value="" style="image;sketch=0;aspect=fixed;html=1;points=[];align=center;fontSize=12;image=img/lib/mscae/Managed_Desktop.svg;" parent="1" vertex="1">
          <mxGeometry x="1110.75" y="1652" width="61.5" height="44.28" as="geometry" />
        </mxCell>
        <UserObject label="10.0.0.1&#xa;" id="pTCAKiWSWJhNQXC4PXRn-58">
          <mxCell style="text;whiteSpace=wrap;fontSize=20;" parent="1" vertex="1">
            <mxGeometry x="506.5" y="1554" width="79" height="35" as="geometry" />
          </mxCell>
        </UserObject>
        <mxCell id="pTCAKiWSWJhNQXC4PXRn-59" value="&lt;font style=&quot;font-size: 20px;&quot;&gt;eth0&lt;br&gt;&lt;/font&gt;" style="text;html=1;align=center;verticalAlign=middle;resizable=0;points=[];autosize=1;strokeColor=none;fillColor=none;" parent="1" vertex="1">
          <mxGeometry x="329.25" y="1616" width="57" height="36" as="geometry" />
        </mxCell>
        <mxCell id="pTCAKiWSWJhNQXC4PXRn-60" value="&lt;font style=&quot;font-size: 20px;&quot;&gt;eth0&lt;br&gt;&lt;/font&gt;" style="text;html=1;align=center;verticalAlign=middle;resizable=0;points=[];autosize=1;strokeColor=none;fillColor=none;" parent="1" vertex="1">
          <mxGeometry x="539.25" y="1616" width="57" height="36" as="geometry" />
        </mxCell>
        <mxCell id="pTCAKiWSWJhNQXC4PXRn-61" value="&lt;font style=&quot;font-size: 20px;&quot;&gt;eth0&lt;br&gt;&lt;/font&gt;" style="text;html=1;align=center;verticalAlign=middle;resizable=0;points=[];autosize=1;strokeColor=none;fillColor=none;" parent="1" vertex="1">
          <mxGeometry x="911.25" y="1614" width="57" height="36" as="geometry" />
        </mxCell>
        <mxCell id="pTCAKiWSWJhNQXC4PXRn-62" value="&lt;font style=&quot;font-size: 20px;&quot;&gt;eth0&lt;br&gt;&lt;/font&gt;" style="text;html=1;align=center;verticalAlign=middle;resizable=0;points=[];autosize=1;strokeColor=none;fillColor=none;" parent="1" vertex="1">
          <mxGeometry x="1126.25" y="1614" width="57" height="36" as="geometry" />
        </mxCell>
        <mxCell id="pTCAKiWSWJhNQXC4PXRn-64" value="&lt;font style=&quot;font-size: 20px;&quot;&gt;eth1&lt;br&gt;&lt;/font&gt;" style="text;html=1;align=center;verticalAlign=middle;resizable=0;points=[];autosize=1;strokeColor=none;fillColor=none;" parent="1" vertex="1">
          <mxGeometry x="485.25" y="1533" width="57" height="36" as="geometry" />
        </mxCell>
        <mxCell id="pTCAKiWSWJhNQXC4PXRn-65" value="&lt;font style=&quot;font-size: 20px;&quot;&gt;eth4&lt;br&gt;&lt;/font&gt;" style="text;html=1;align=center;verticalAlign=middle;resizable=0;points=[];autosize=1;strokeColor=none;fillColor=none;" parent="1" vertex="1">
          <mxGeometry x="422.25" y="1467" width="57" height="36" as="geometry" />
        </mxCell>
        <mxCell id="pTCAKiWSWJhNQXC4PXRn-66" value="&lt;font style=&quot;font-size: 20px;&quot;&gt;eth2&lt;br&gt;&lt;/font&gt;" style="text;html=1;align=center;verticalAlign=middle;resizable=0;points=[];autosize=1;strokeColor=none;fillColor=none;" parent="1" vertex="1">
          <mxGeometry x="542.25" y="1282" width="57" height="36" as="geometry" />
        </mxCell>
        <mxCell id="pTCAKiWSWJhNQXC4PXRn-67" value="&lt;font style=&quot;font-size: 20px;&quot;&gt;eth2&lt;br&gt;&lt;/font&gt;" style="text;html=1;align=center;verticalAlign=middle;resizable=0;points=[];autosize=1;strokeColor=none;fillColor=none;" parent="1" vertex="1">
          <mxGeometry x="893.75" y="1285" width="57" height="36" as="geometry" />
        </mxCell>
        <mxCell id="pTCAKiWSWJhNQXC4PXRn-68" value="&lt;font style=&quot;font-size: 20px;&quot;&gt;eth4&lt;br&gt;&lt;/font&gt;" style="text;html=1;align=center;verticalAlign=middle;resizable=0;points=[];autosize=1;strokeColor=none;fillColor=none;" parent="1" vertex="1">
          <mxGeometry x="1049.25" y="1477" width="57" height="36" as="geometry" />
        </mxCell>
        <mxCell id="pTCAKiWSWJhNQXC4PXRn-69" value="&lt;font style=&quot;font-size: 20px;&quot;&gt;eth2&lt;br&gt;&lt;/font&gt;" style="text;html=1;align=center;verticalAlign=middle;resizable=0;points=[];autosize=1;strokeColor=none;fillColor=none;" parent="1" vertex="1">
          <mxGeometry x="489.25" y="1461" width="57" height="36" as="geometry" />
        </mxCell>
        <mxCell id="pTCAKiWSWJhNQXC4PXRn-70" value="&lt;font style=&quot;font-size: 20px;&quot;&gt;eth3&lt;br&gt;&lt;/font&gt;" style="text;html=1;align=center;verticalAlign=middle;resizable=0;points=[];autosize=1;strokeColor=none;fillColor=none;" parent="1" vertex="1">
          <mxGeometry x="537.75" y="1495" width="57" height="36" as="geometry" />
        </mxCell>
        <mxCell id="pTCAKiWSWJhNQXC4PXRn-72" value="&lt;font style=&quot;font-size: 20px;&quot;&gt;eth1&lt;br&gt;&lt;/font&gt;" style="text;html=1;align=center;verticalAlign=middle;resizable=0;points=[];autosize=1;strokeColor=none;fillColor=none;" parent="1" vertex="1">
          <mxGeometry x="624.75" y="1324" width="57" height="36" as="geometry" />
        </mxCell>
        <mxCell id="pTCAKiWSWJhNQXC4PXRn-73" value="&lt;font style=&quot;font-size: 20px;&quot;&gt;eth2&lt;br&gt;&lt;/font&gt;" style="text;html=1;align=center;verticalAlign=middle;resizable=0;points=[];autosize=1;strokeColor=none;fillColor=none;" parent="1" vertex="1">
          <mxGeometry x="918.25" y="1495" width="57" height="36" as="geometry" />
        </mxCell>
        <mxCell id="pTCAKiWSWJhNQXC4PXRn-74" value="&lt;font style=&quot;font-size: 20px;&quot;&gt;eth3&lt;br&gt;&lt;/font&gt;" style="text;html=1;align=center;verticalAlign=middle;resizable=0;points=[];autosize=1;strokeColor=none;fillColor=none;" parent="1" vertex="1">
          <mxGeometry x="963.25" y="1453" width="57" height="36" as="geometry" />
        </mxCell>
        <mxCell id="pTCAKiWSWJhNQXC4PXRn-76" value="&lt;font style=&quot;font-size: 20px;&quot;&gt;.1&lt;br&gt;&lt;/font&gt;" style="text;html=1;align=center;verticalAlign=middle;resizable=0;points=[];autosize=1;strokeColor=none;fillColor=none;" parent="1" vertex="1">
          <mxGeometry x="433.25" y="1444" width="35" height="36" as="geometry" />
        </mxCell>
        <UserObject label="10.0.0.11/24" id="pTCAKiWSWJhNQXC4PXRn-77">
          <mxCell style="text;whiteSpace=wrap;fontSize=20;" parent="1" vertex="1">
            <mxGeometry x="317.5" y="1731.2800000000002" width="130.5" height="36" as="geometry" />
          </mxCell>
        </UserObject>
        <UserObject label="10.0.0.12/24" id="pTCAKiWSWJhNQXC4PXRn-78">
          <mxCell style="text;whiteSpace=wrap;fontSize=20;" parent="1" vertex="1">
            <mxGeometry x="494.25" y="1733.2800000000002" width="130.5" height="36" as="geometry" />
          </mxCell>
        </UserObject>
        <UserObject label="10.0.0.13/24" id="pTCAKiWSWJhNQXC4PXRn-79">
          <mxCell style="text;whiteSpace=wrap;fontSize=20;" parent="1" vertex="1">
            <mxGeometry x="902.25" y="1729.92" width="130.5" height="36" as="geometry" />
          </mxCell>
        </UserObject>
        <UserObject label="10.0.0.14/24" id="pTCAKiWSWJhNQXC4PXRn-80">
          <mxCell style="text;whiteSpace=wrap;fontSize=20;" parent="1" vertex="1">
            <mxGeometry x="1089.5" y="1729.92" width="130.5" height="38.72" as="geometry" />
          </mxCell>
        </UserObject>
        <UserObject label="10.0.0.1&#xa;" id="pTCAKiWSWJhNQXC4PXRn-82">
          <mxCell style="text;whiteSpace=wrap;fontSize=20;" parent="1" vertex="1">
            <mxGeometry x="348.25" y="1554" width="79" height="35" as="geometry" />
          </mxCell>
        </UserObject>
        <UserObject label="10.0.0.1&#xa;" id="pTCAKiWSWJhNQXC4PXRn-83">
          <mxCell style="text;whiteSpace=wrap;fontSize=20;" parent="1" vertex="1">
            <mxGeometry x="931.25" y="1554" width="79" height="35" as="geometry" />
          </mxCell>
        </UserObject>
        <UserObject label="10.0.0.1&#xa;" id="pTCAKiWSWJhNQXC4PXRn-84">
          <mxCell style="text;whiteSpace=wrap;fontSize=20;" parent="1" vertex="1">
            <mxGeometry x="1087.25" y="1554" width="79" height="35" as="geometry" />
          </mxCell>
        </UserObject>
        <mxCell id="AEnNqYOokj_pp7Sw3cZk-1" value="" style="endArrow=none;html=1;rounded=0;strokeWidth=2;" parent="1" edge="1">
          <mxGeometry width="50" height="50" relative="1" as="geometry">
            <mxPoint x="1983.75" y="2086" as="sourcePoint" />
            <mxPoint x="2341.75" y="1924" as="targetPoint" />
            <Array as="points">
              <mxPoint x="2249.75" y="1968" />
            </Array>
          </mxGeometry>
        </mxCell>
        <mxCell id="AEnNqYOokj_pp7Sw3cZk-2" value="" style="endArrow=none;html=1;rounded=0;strokeWidth=2;entryX=0.07;entryY=0.037;entryDx=0;entryDy=0;entryPerimeter=0;" parent="1" edge="1">
          <mxGeometry width="50" height="50" relative="1" as="geometry">
            <mxPoint x="1943.75" y="2063" as="sourcePoint" />
            <mxPoint x="2030.7399999999998" y="1928.3319999999999" as="targetPoint" />
          </mxGeometry>
        </mxCell>
        <mxCell id="AEnNqYOokj_pp7Sw3cZk-3" value="" style="endArrow=none;html=1;rounded=0;strokeWidth=2;entryX=0.006;entryY=0.306;entryDx=0;entryDy=0;entryPerimeter=0;" parent="1" target="AEnNqYOokj_pp7Sw3cZk-16" edge="1">
          <mxGeometry width="50" height="50" relative="1" as="geometry">
            <mxPoint x="2482.75" y="2070" as="sourcePoint" />
            <mxPoint x="2363.75" y="1940" as="targetPoint" />
          </mxGeometry>
        </mxCell>
        <mxCell id="AEnNqYOokj_pp7Sw3cZk-4" value="" style="endArrow=none;html=1;rounded=0;strokeWidth=2;" parent="1" edge="1">
          <mxGeometry width="50" height="50" relative="1" as="geometry">
            <mxPoint x="2083.75" y="1921.0100000000002" as="sourcePoint" />
            <mxPoint x="2443.75" y="2079" as="targetPoint" />
          </mxGeometry>
        </mxCell>
        <mxCell id="AEnNqYOokj_pp7Sw3cZk-5" value="&lt;font style=&quot;font-size: 22px;&quot;&gt;s1&lt;/font&gt;" style="text;html=1;align=center;verticalAlign=middle;resizable=0;points=[];autosize=1;strokeColor=#d6b656;fillColor=#fff2cc;" parent="1" vertex="1">
          <mxGeometry x="1836.75" y="2046" width="41" height="38" as="geometry" />
        </mxCell>
        <mxCell id="AEnNqYOokj_pp7Sw3cZk-6" value="&lt;font style=&quot;&quot;&gt;&lt;font style=&quot;font-size: 22px;&quot;&gt;s2&lt;/font&gt;&lt;br&gt;&lt;/font&gt;" style="text;html=1;align=center;verticalAlign=middle;resizable=0;points=[];autosize=1;strokeColor=#d6b656;fillColor=#fff2cc;" parent="1" vertex="1">
          <mxGeometry x="2557.75" y="2059" width="41" height="38" as="geometry" />
        </mxCell>
        <mxCell id="AEnNqYOokj_pp7Sw3cZk-7" value="&lt;font style=&quot;&quot;&gt;&lt;font style=&quot;font-size: 22px;&quot;&gt;s4&lt;/font&gt;&lt;br&gt;&lt;/font&gt;" style="text;html=1;align=center;verticalAlign=middle;resizable=0;points=[];autosize=1;strokeColor=#d6b656;fillColor=#fff2cc;" parent="1" vertex="1">
          <mxGeometry x="2423.75" y="1872" width="41" height="38" as="geometry" />
        </mxCell>
        <mxCell id="AEnNqYOokj_pp7Sw3cZk-8" value="&lt;font style=&quot;&quot;&gt;&lt;font style=&quot;font-size: 22px;&quot;&gt;s3&lt;/font&gt;&lt;br&gt;&lt;/font&gt;" style="text;html=1;align=center;verticalAlign=middle;resizable=0;points=[];autosize=1;strokeColor=#d6b656;fillColor=#fff2cc;" parent="1" vertex="1">
          <mxGeometry x="1945.75" y="1864" width="41" height="38" as="geometry" />
        </mxCell>
        <mxCell id="AEnNqYOokj_pp7Sw3cZk-9" value="" style="endArrow=none;html=1;rounded=0;strokeWidth=2;fillColor=#dae8fc;strokeColor=#6c8ebf;" parent="1" source="AEnNqYOokj_pp7Sw3cZk-18" edge="1">
          <mxGeometry width="50" height="50" relative="1" as="geometry">
            <mxPoint x="2055.75" y="1876" as="sourcePoint" />
            <mxPoint x="2112.75" y="1771" as="targetPoint" />
          </mxGeometry>
        </mxCell>
        <mxCell id="AEnNqYOokj_pp7Sw3cZk-10" value="" style="fontColor=#0066CC;verticalAlign=top;verticalLabelPosition=bottom;labelPosition=center;align=center;html=1;outlineConnect=0;fillColor=#CCCCCC;strokeColor=#6881B3;gradientColor=none;gradientDirection=north;strokeWidth=2;shape=mxgraph.networks.monitor;" parent="1" vertex="1">
          <mxGeometry x="2142.75" y="1608" width="80" height="65" as="geometry" />
        </mxCell>
        <mxCell id="AEnNqYOokj_pp7Sw3cZk-11" value="&lt;font style=&quot;font-size: 20px;&quot;&gt;Controller&lt;br&gt;&lt;/font&gt;" style="text;html=1;align=center;verticalAlign=middle;resizable=0;points=[];autosize=1;strokeColor=#d79b00;fillColor=#ffe6cc;" parent="1" vertex="1">
          <mxGeometry x="2130.25" y="1572" width="105" height="36" as="geometry" />
        </mxCell>
        <mxCell id="AEnNqYOokj_pp7Sw3cZk-12" value="&lt;font style=&quot;font-size: 20px;&quot;&gt;eth1&lt;br&gt;&lt;/font&gt;" style="text;html=1;align=center;verticalAlign=middle;resizable=0;points=[];autosize=1;strokeColor=none;fillColor=none;" parent="1" vertex="1">
          <mxGeometry x="2277.75" y="1899" width="57" height="36" as="geometry" />
        </mxCell>
        <mxCell id="AEnNqYOokj_pp7Sw3cZk-13" value="&lt;font style=&quot;font-size: 20px;&quot;&gt;eth0&lt;br&gt;&lt;/font&gt;" style="text;html=1;align=center;verticalAlign=middle;resizable=0;points=[];autosize=1;strokeColor=none;fillColor=none;" parent="1" vertex="1">
          <mxGeometry x="1847.75" y="2103" width="57" height="36" as="geometry" />
        </mxCell>
        <mxCell id="AEnNqYOokj_pp7Sw3cZk-14" value="&lt;font style=&quot;font-size: 20px;&quot;&gt;eth0&lt;br&gt;&lt;/font&gt;" style="text;html=1;align=center;verticalAlign=middle;resizable=0;points=[];autosize=1;strokeColor=none;fillColor=none;" parent="1" vertex="1">
          <mxGeometry x="2428.75" y="2106" width="57" height="36" as="geometry" />
        </mxCell>
        <mxCell id="AEnNqYOokj_pp7Sw3cZk-15" value="&lt;font style=&quot;font-size: 20px;&quot;&gt;eth1&lt;br&gt;&lt;/font&gt;" style="text;html=1;align=center;verticalAlign=middle;resizable=0;points=[];autosize=1;strokeColor=none;fillColor=none;" parent="1" vertex="1">
          <mxGeometry x="2525.75" y="2106" width="57" height="36" as="geometry" />
        </mxCell>
        <mxCell id="AEnNqYOokj_pp7Sw3cZk-16" value="&lt;font style=&quot;font-size: 20px;&quot;&gt;eth0&lt;br&gt;&lt;/font&gt;" style="text;html=1;align=center;verticalAlign=middle;resizable=0;points=[];autosize=1;strokeColor=none;fillColor=none;" parent="1" vertex="1">
          <mxGeometry x="2424.75" y="1913" width="57" height="36" as="geometry" />
        </mxCell>
        <mxCell id="AEnNqYOokj_pp7Sw3cZk-17" value="&lt;font style=&quot;font-size: 20px;&quot;&gt;eth0&lt;br&gt;&lt;/font&gt;" style="text;html=1;align=center;verticalAlign=middle;resizable=0;points=[];autosize=1;strokeColor=none;fillColor=none;" parent="1" vertex="1">
          <mxGeometry x="1971.75" y="1911" width="57" height="36" as="geometry" />
        </mxCell>
        <mxCell id="AEnNqYOokj_pp7Sw3cZk-18" value="" style="fontColor=#0066CC;verticalAlign=top;verticalLabelPosition=bottom;labelPosition=center;align=center;html=1;outlineConnect=0;fillColor=#CCCCCC;strokeColor=#6881B3;gradientColor=none;gradientDirection=north;strokeWidth=2;shape=mxgraph.networks.switch;" parent="1" vertex="1">
          <mxGeometry x="1985.75" y="1888" width="100" height="30" as="geometry" />
        </mxCell>
        <mxCell id="AEnNqYOokj_pp7Sw3cZk-19" value="" style="fontColor=#0066CC;verticalAlign=top;verticalLabelPosition=bottom;labelPosition=center;align=center;html=1;outlineConnect=0;fillColor=#CCCCCC;strokeColor=#6881B3;gradientColor=none;gradientDirection=north;strokeWidth=2;shape=mxgraph.networks.switch;" parent="1" vertex="1">
          <mxGeometry x="2328.75" y="1888" width="100" height="30" as="geometry" />
        </mxCell>
        <mxCell id="AEnNqYOokj_pp7Sw3cZk-20" value="" style="fontColor=#0066CC;verticalAlign=top;verticalLabelPosition=bottom;labelPosition=center;align=center;html=1;outlineConnect=0;fillColor=#CCCCCC;strokeColor=#6881B3;gradientColor=none;gradientDirection=north;strokeWidth=2;shape=mxgraph.networks.switch;" parent="1" vertex="1">
          <mxGeometry x="1878.75" y="2073" width="100" height="30" as="geometry" />
        </mxCell>
        <mxCell id="AEnNqYOokj_pp7Sw3cZk-21" value="" style="fontColor=#0066CC;verticalAlign=top;verticalLabelPosition=bottom;labelPosition=center;align=center;html=1;outlineConnect=0;fillColor=#CCCCCC;strokeColor=#6881B3;gradientColor=none;gradientDirection=north;strokeWidth=2;shape=mxgraph.networks.switch;" parent="1" vertex="1">
          <mxGeometry x="2452.75" y="2079" width="100" height="30" as="geometry" />
        </mxCell>
        <mxCell id="AEnNqYOokj_pp7Sw3cZk-22" value="" style="ellipse;shape=cloud;whiteSpace=wrap;html=1;fillColor=#FFFFFF;strokeColor=#6c8ebf;" parent="1" vertex="1">
          <mxGeometry x="1990.75" y="1705" width="384" height="113" as="geometry" />
        </mxCell>
        <mxCell id="AEnNqYOokj_pp7Sw3cZk-23" value="" style="endArrow=none;html=1;rounded=0;strokeWidth=2;fillColor=#dae8fc;strokeColor=#6c8ebf;exitX=0.959;exitY=1.019;exitDx=0;exitDy=0;exitPerimeter=0;" parent="1" source="AEnNqYOokj_pp7Sw3cZk-51" edge="1">
          <mxGeometry width="50" height="50" relative="1" as="geometry">
            <mxPoint x="1923.75" y="1876" as="sourcePoint" />
            <mxPoint x="2029.75" y="1782" as="targetPoint" />
            <Array as="points">
              <mxPoint x="1919.75" y="1847" />
            </Array>
          </mxGeometry>
        </mxCell>
        <mxCell id="AEnNqYOokj_pp7Sw3cZk-24" value="" style="endArrow=none;html=1;rounded=0;strokeWidth=2;fillColor=#dae8fc;strokeColor=#6c8ebf;" parent="1" source="AEnNqYOokj_pp7Sw3cZk-19" edge="1">
          <mxGeometry width="50" height="50" relative="1" as="geometry">
            <mxPoint x="2354.75" y="1884" as="sourcePoint" />
            <mxPoint x="2288.75" y="1799" as="targetPoint" />
          </mxGeometry>
        </mxCell>
        <UserObject label="20.0.0.0/24" id="AEnNqYOokj_pp7Sw3cZk-25">
          <mxCell style="text;whiteSpace=wrap;fontSize=20;" parent="1" vertex="1">
            <mxGeometry x="2117.5" y="1751" width="130.5" height="36" as="geometry" />
          </mxCell>
        </UserObject>
        <mxCell id="AEnNqYOokj_pp7Sw3cZk-26" value="" style="endArrow=none;html=1;rounded=0;strokeWidth=2;fillColor=#dae8fc;strokeColor=#6c8ebf;exitX=0.5;exitY=0.112;exitDx=0;exitDy=0;exitPerimeter=0;" parent="1" source="AEnNqYOokj_pp7Sw3cZk-22" target="AEnNqYOokj_pp7Sw3cZk-10" edge="1">
          <mxGeometry width="50" height="50" relative="1" as="geometry">
            <mxPoint x="2174.75" y="1716" as="sourcePoint" />
            <mxPoint x="2172.75" y="1678" as="targetPoint" />
            <Array as="points" />
          </mxGeometry>
        </mxCell>
        <mxCell id="AEnNqYOokj_pp7Sw3cZk-27" value="&lt;font style=&quot;font-size: 20px;&quot;&gt;eth0&lt;br&gt;&lt;/font&gt;" style="text;html=1;align=center;verticalAlign=middle;resizable=0;points=[];autosize=1;strokeColor=none;fillColor=none;" parent="1" vertex="1">
          <mxGeometry x="2198.75" y="1676" width="57" height="36" as="geometry" />
        </mxCell>
        <mxCell id="AEnNqYOokj_pp7Sw3cZk-28" value="&lt;font style=&quot;font-size: 20px;&quot;&gt;.100&lt;br&gt;&lt;/font&gt;" style="text;html=1;align=center;verticalAlign=middle;resizable=0;points=[];autosize=1;strokeColor=none;fillColor=none;" parent="1" vertex="1">
          <mxGeometry x="2107.75" y="1669" width="57" height="36" as="geometry" />
        </mxCell>
        <mxCell id="AEnNqYOokj_pp7Sw3cZk-29" value="&lt;font style=&quot;font-size: 20px;&quot;&gt;.4&lt;br&gt;&lt;/font&gt;" style="text;html=1;align=center;verticalAlign=middle;resizable=0;points=[];autosize=1;strokeColor=none;fillColor=none;" parent="1" vertex="1">
          <mxGeometry x="2016.25" y="1832" width="35" height="36" as="geometry" />
        </mxCell>
        <mxCell id="AEnNqYOokj_pp7Sw3cZk-30" value="&lt;font style=&quot;font-size: 20px;&quot;&gt;.2&lt;br&gt;&lt;/font&gt;" style="text;html=1;align=center;verticalAlign=middle;resizable=0;points=[];autosize=1;strokeColor=none;fillColor=none;" parent="1" vertex="1">
          <mxGeometry x="2510.75" y="2026" width="35" height="36" as="geometry" />
        </mxCell>
        <mxCell id="AEnNqYOokj_pp7Sw3cZk-31" value="&lt;font style=&quot;font-size: 20px;&quot;&gt;.3&lt;br&gt;&lt;/font&gt;" style="text;html=1;align=center;verticalAlign=middle;resizable=0;points=[];autosize=1;strokeColor=none;fillColor=none;" parent="1" vertex="1">
          <mxGeometry x="2348.75" y="1832" width="35" height="36" as="geometry" />
        </mxCell>
        <mxCell id="AEnNqYOokj_pp7Sw3cZk-32" value="" style="endArrow=none;html=1;rounded=0;strokeWidth=2;fillColor=#dae8fc;strokeColor=#6c8ebf;entryX=0.943;entryY=0.737;entryDx=0;entryDy=0;entryPerimeter=0;" parent="1" target="AEnNqYOokj_pp7Sw3cZk-22" edge="1">
          <mxGeometry width="50" height="50" relative="1" as="geometry">
            <mxPoint x="2510.75" y="2078" as="sourcePoint" />
            <mxPoint x="2424.75" y="1772" as="targetPoint" />
            <Array as="points">
              <mxPoint x="2506.75" y="1867" />
            </Array>
          </mxGeometry>
        </mxCell>
        <mxCell id="AEnNqYOokj_pp7Sw3cZk-33" value="" style="endArrow=none;html=1;rounded=0;strokeWidth=2;entryX=0.07;entryY=0.037;entryDx=0;entryDy=0;entryPerimeter=0;" parent="1" edge="1">
          <mxGeometry width="50" height="50" relative="1" as="geometry">
            <mxPoint x="1841.75" y="2209" as="sourcePoint" />
            <mxPoint x="1914.75" y="2111" as="targetPoint" />
          </mxGeometry>
        </mxCell>
        <mxCell id="AEnNqYOokj_pp7Sw3cZk-34" value="" style="endArrow=none;html=1;rounded=0;strokeWidth=2;entryX=0.07;entryY=0.037;entryDx=0;entryDy=0;entryPerimeter=0;" parent="1" edge="1">
          <mxGeometry width="50" height="50" relative="1" as="geometry">
            <mxPoint x="2416.75" y="2218" as="sourcePoint" />
            <mxPoint x="2489.75" y="2120" as="targetPoint" />
          </mxGeometry>
        </mxCell>
        <mxCell id="AEnNqYOokj_pp7Sw3cZk-35" value="" style="endArrow=none;html=1;rounded=0;strokeWidth=2;entryX=0.07;entryY=0.037;entryDx=0;entryDy=0;entryPerimeter=0;" parent="1" edge="1">
          <mxGeometry width="50" height="50" relative="1" as="geometry">
            <mxPoint x="2002.75" y="2203" as="sourcePoint" />
            <mxPoint x="1935.75" y="2113" as="targetPoint" />
          </mxGeometry>
        </mxCell>
        <mxCell id="AEnNqYOokj_pp7Sw3cZk-36" value="" style="endArrow=none;html=1;rounded=0;strokeWidth=2;entryX=0.07;entryY=0.037;entryDx=0;entryDy=0;entryPerimeter=0;" parent="1" edge="1">
          <mxGeometry width="50" height="50" relative="1" as="geometry">
            <mxPoint x="2586.75" y="2210" as="sourcePoint" />
            <mxPoint x="2519.75" y="2120" as="targetPoint" />
          </mxGeometry>
        </mxCell>
        <mxCell id="AEnNqYOokj_pp7Sw3cZk-37" value="&lt;font style=&quot;font-size: 22px;&quot;&gt;h1&lt;/font&gt;" style="text;html=1;align=center;verticalAlign=middle;resizable=0;points=[];autosize=1;strokeColor=#82b366;fillColor=#d5e8d4;" parent="1" vertex="1">
          <mxGeometry x="1812.5" y="2265.28" width="42" height="38" as="geometry" />
        </mxCell>
        <mxCell id="AEnNqYOokj_pp7Sw3cZk-38" value="&lt;font style=&quot;&quot;&gt;&lt;font style=&quot;font-size: 22px;&quot;&gt;h2&lt;/font&gt;&lt;br&gt;&lt;/font&gt;" style="text;html=1;align=center;verticalAlign=middle;resizable=0;points=[];autosize=1;strokeColor=#82b366;fillColor=#d5e8d4;" parent="1" vertex="1">
          <mxGeometry x="1981.75" y="2263.28" width="42" height="38" as="geometry" />
        </mxCell>
        <mxCell id="AEnNqYOokj_pp7Sw3cZk-39" value="&lt;font style=&quot;font-size: 22px;&quot;&gt;h3&lt;/font&gt;" style="text;html=1;align=center;verticalAlign=middle;resizable=0;points=[];autosize=1;strokeColor=#82b366;fillColor=#d5e8d4;" parent="1" vertex="1">
          <mxGeometry x="2395.5" y="2263.28" width="42" height="38" as="geometry" />
        </mxCell>
        <mxCell id="AEnNqYOokj_pp7Sw3cZk-40" value="&lt;font style=&quot;font-size: 22px;&quot;&gt;h4&lt;/font&gt;" style="text;html=1;align=center;verticalAlign=middle;resizable=0;points=[];autosize=1;strokeColor=#82b366;fillColor=#d5e8d4;" parent="1" vertex="1">
          <mxGeometry x="2577" y="2263.28" width="42" height="38" as="geometry" />
        </mxCell>
        <mxCell id="AEnNqYOokj_pp7Sw3cZk-41" value="" style="image;sketch=0;aspect=fixed;html=1;points=[];align=center;fontSize=12;image=img/lib/mscae/Managed_Desktop.svg;" parent="1" vertex="1">
          <mxGeometry x="1802.75" y="2225" width="61.5" height="44.28" as="geometry" />
        </mxCell>
        <mxCell id="AEnNqYOokj_pp7Sw3cZk-42" value="" style="image;sketch=0;aspect=fixed;html=1;points=[];align=center;fontSize=12;image=img/lib/mscae/Managed_Desktop.svg;" parent="1" vertex="1">
          <mxGeometry x="1971.75" y="2222" width="61.5" height="44.28" as="geometry" />
        </mxCell>
        <mxCell id="AEnNqYOokj_pp7Sw3cZk-43" value="" style="image;sketch=0;aspect=fixed;html=1;points=[];align=center;fontSize=12;image=img/lib/mscae/Managed_Desktop.svg;" parent="1" vertex="1">
          <mxGeometry x="2385.75" y="2220" width="61.5" height="44.28" as="geometry" />
        </mxCell>
        <mxCell id="AEnNqYOokj_pp7Sw3cZk-44" value="" style="image;sketch=0;aspect=fixed;html=1;points=[];align=center;fontSize=12;image=img/lib/mscae/Managed_Desktop.svg;" parent="1" vertex="1">
          <mxGeometry x="2567.25" y="2222" width="61.5" height="44.28" as="geometry" />
        </mxCell>
        <UserObject label="10.0.0.1&#xa;" id="AEnNqYOokj_pp7Sw3cZk-45">
          <mxCell style="text;whiteSpace=wrap;fontSize=20;" parent="1" vertex="1">
            <mxGeometry x="1963" y="2124" width="79" height="35" as="geometry" />
          </mxCell>
        </UserObject>
        <mxCell id="AEnNqYOokj_pp7Sw3cZk-46" value="&lt;font style=&quot;font-size: 20px;&quot;&gt;eth0&lt;br&gt;&lt;/font&gt;" style="text;html=1;align=center;verticalAlign=middle;resizable=0;points=[];autosize=1;strokeColor=none;fillColor=none;" parent="1" vertex="1">
          <mxGeometry x="1785.75" y="2186" width="57" height="36" as="geometry" />
        </mxCell>
        <mxCell id="AEnNqYOokj_pp7Sw3cZk-47" value="&lt;font style=&quot;font-size: 20px;&quot;&gt;eth0&lt;br&gt;&lt;/font&gt;" style="text;html=1;align=center;verticalAlign=middle;resizable=0;points=[];autosize=1;strokeColor=none;fillColor=none;" parent="1" vertex="1">
          <mxGeometry x="1995.75" y="2186" width="57" height="36" as="geometry" />
        </mxCell>
        <mxCell id="AEnNqYOokj_pp7Sw3cZk-48" value="&lt;font style=&quot;font-size: 20px;&quot;&gt;eth0&lt;br&gt;&lt;/font&gt;" style="text;html=1;align=center;verticalAlign=middle;resizable=0;points=[];autosize=1;strokeColor=none;fillColor=none;" parent="1" vertex="1">
          <mxGeometry x="2367.75" y="2184" width="57" height="36" as="geometry" />
        </mxCell>
        <mxCell id="AEnNqYOokj_pp7Sw3cZk-49" value="&lt;font style=&quot;font-size: 20px;&quot;&gt;eth0&lt;br&gt;&lt;/font&gt;" style="text;html=1;align=center;verticalAlign=middle;resizable=0;points=[];autosize=1;strokeColor=none;fillColor=none;" parent="1" vertex="1">
          <mxGeometry x="2582.75" y="2184" width="57" height="36" as="geometry" />
        </mxCell>
        <mxCell id="AEnNqYOokj_pp7Sw3cZk-50" value="&lt;font style=&quot;font-size: 20px;&quot;&gt;eth1&lt;br&gt;&lt;/font&gt;" style="text;html=1;align=center;verticalAlign=middle;resizable=0;points=[];autosize=1;strokeColor=none;fillColor=none;" parent="1" vertex="1">
          <mxGeometry x="1941.75" y="2103" width="57" height="36" as="geometry" />
        </mxCell>
        <mxCell id="AEnNqYOokj_pp7Sw3cZk-51" value="&lt;font style=&quot;font-size: 20px;&quot;&gt;eth4&lt;br&gt;&lt;/font&gt;" style="text;html=1;align=center;verticalAlign=middle;resizable=0;points=[];autosize=1;strokeColor=none;fillColor=none;" parent="1" vertex="1">
          <mxGeometry x="1878.75" y="2037" width="57" height="36" as="geometry" />
        </mxCell>
        <mxCell id="AEnNqYOokj_pp7Sw3cZk-52" value="&lt;font style=&quot;font-size: 20px;&quot;&gt;eth2&lt;br&gt;&lt;/font&gt;" style="text;html=1;align=center;verticalAlign=middle;resizable=0;points=[];autosize=1;strokeColor=none;fillColor=none;" parent="1" vertex="1">
          <mxGeometry x="1998.75" y="1852" width="57" height="36" as="geometry" />
        </mxCell>
        <mxCell id="AEnNqYOokj_pp7Sw3cZk-53" value="&lt;font style=&quot;font-size: 20px;&quot;&gt;eth2&lt;br&gt;&lt;/font&gt;" style="text;html=1;align=center;verticalAlign=middle;resizable=0;points=[];autosize=1;strokeColor=none;fillColor=none;" parent="1" vertex="1">
          <mxGeometry x="2350.25" y="1855" width="57" height="36" as="geometry" />
        </mxCell>
        <mxCell id="AEnNqYOokj_pp7Sw3cZk-54" value="&lt;font style=&quot;font-size: 20px;&quot;&gt;eth4&lt;br&gt;&lt;/font&gt;" style="text;html=1;align=center;verticalAlign=middle;resizable=0;points=[];autosize=1;strokeColor=none;fillColor=none;" parent="1" vertex="1">
          <mxGeometry x="2505.75" y="2047" width="57" height="36" as="geometry" />
        </mxCell>
        <mxCell id="AEnNqYOokj_pp7Sw3cZk-55" value="&lt;font style=&quot;font-size: 20px;&quot;&gt;eth2&lt;br&gt;&lt;/font&gt;" style="text;html=1;align=center;verticalAlign=middle;resizable=0;points=[];autosize=1;strokeColor=none;fillColor=none;" parent="1" vertex="1">
          <mxGeometry x="1945.75" y="2031" width="57" height="36" as="geometry" />
        </mxCell>
        <mxCell id="AEnNqYOokj_pp7Sw3cZk-56" value="&lt;font style=&quot;font-size: 20px;&quot;&gt;eth3&lt;br&gt;&lt;/font&gt;" style="text;html=1;align=center;verticalAlign=middle;resizable=0;points=[];autosize=1;strokeColor=none;fillColor=none;" parent="1" vertex="1">
          <mxGeometry x="1994.25" y="2065" width="57" height="36" as="geometry" />
        </mxCell>
        <mxCell id="AEnNqYOokj_pp7Sw3cZk-57" value="&lt;font style=&quot;font-size: 20px;&quot;&gt;eth1&lt;br&gt;&lt;/font&gt;" style="text;html=1;align=center;verticalAlign=middle;resizable=0;points=[];autosize=1;strokeColor=none;fillColor=none;" parent="1" vertex="1">
          <mxGeometry x="2081.25" y="1894" width="57" height="36" as="geometry" />
        </mxCell>
        <mxCell id="AEnNqYOokj_pp7Sw3cZk-58" value="&lt;font style=&quot;font-size: 20px;&quot;&gt;eth2&lt;br&gt;&lt;/font&gt;" style="text;html=1;align=center;verticalAlign=middle;resizable=0;points=[];autosize=1;strokeColor=none;fillColor=none;" parent="1" vertex="1">
          <mxGeometry x="2374.75" y="2065" width="57" height="36" as="geometry" />
        </mxCell>
        <mxCell id="AEnNqYOokj_pp7Sw3cZk-59" value="&lt;font style=&quot;font-size: 20px;&quot;&gt;eth3&lt;br&gt;&lt;/font&gt;" style="text;html=1;align=center;verticalAlign=middle;resizable=0;points=[];autosize=1;strokeColor=none;fillColor=none;" parent="1" vertex="1">
          <mxGeometry x="2419.75" y="2023" width="57" height="36" as="geometry" />
        </mxCell>
        <mxCell id="AEnNqYOokj_pp7Sw3cZk-60" value="&lt;font style=&quot;font-size: 20px;&quot;&gt;.1&lt;br&gt;&lt;/font&gt;" style="text;html=1;align=center;verticalAlign=middle;resizable=0;points=[];autosize=1;strokeColor=none;fillColor=none;" parent="1" vertex="1">
          <mxGeometry x="1889.75" y="2014" width="35" height="36" as="geometry" />
        </mxCell>
        <UserObject label="10.0.0.11/24" id="AEnNqYOokj_pp7Sw3cZk-61">
          <mxCell style="text;whiteSpace=wrap;fontSize=20;" parent="1" vertex="1">
            <mxGeometry x="1774" y="2301.28" width="130.5" height="36" as="geometry" />
          </mxCell>
        </UserObject>
        <UserObject label="10.0.0.12/24" id="AEnNqYOokj_pp7Sw3cZk-62">
          <mxCell style="text;whiteSpace=wrap;fontSize=20;" parent="1" vertex="1">
            <mxGeometry x="1950.75" y="2303.28" width="130.5" height="36" as="geometry" />
          </mxCell>
        </UserObject>
        <UserObject label="10.0.0.13/24" id="AEnNqYOokj_pp7Sw3cZk-63">
          <mxCell style="text;whiteSpace=wrap;fontSize=20;" parent="1" vertex="1">
            <mxGeometry x="2358.75" y="2299.92" width="130.5" height="36" as="geometry" />
          </mxCell>
        </UserObject>
        <UserObject label="10.0.0.14/24" id="AEnNqYOokj_pp7Sw3cZk-64">
          <mxCell style="text;whiteSpace=wrap;fontSize=20;" parent="1" vertex="1">
            <mxGeometry x="2546" y="2299.92" width="130.5" height="38.72" as="geometry" />
          </mxCell>
        </UserObject>
        <UserObject label="10.0.0.1&#xa;" id="AEnNqYOokj_pp7Sw3cZk-65">
          <mxCell style="text;whiteSpace=wrap;fontSize=20;" parent="1" vertex="1">
            <mxGeometry x="1804.75" y="2124" width="79" height="35" as="geometry" />
          </mxCell>
        </UserObject>
        <UserObject label="10.0.0.1&#xa;" id="AEnNqYOokj_pp7Sw3cZk-66">
          <mxCell style="text;whiteSpace=wrap;fontSize=20;" parent="1" vertex="1">
            <mxGeometry x="2387.75" y="2124" width="79" height="35" as="geometry" />
          </mxCell>
        </UserObject>
        <UserObject label="10.0.0.1&#xa;" id="AEnNqYOokj_pp7Sw3cZk-67">
          <mxCell style="text;whiteSpace=wrap;fontSize=20;" parent="1" vertex="1">
            <mxGeometry x="2543.75" y="2124" width="79" height="35" as="geometry" />
          </mxCell>
        </UserObject>
        <mxCell id="AEnNqYOokj_pp7Sw3cZk-68" value="&lt;font style=&quot;font-size: 22px;&quot;&gt;s1&lt;/font&gt;" style="text;html=1;align=center;verticalAlign=middle;resizable=0;points=[];autosize=1;strokeColor=#d6b656;fillColor=#fff2cc;" parent="1" vertex="1">
          <mxGeometry x="732" y="2411" width="41" height="38" as="geometry" />
        </mxCell>
        <mxCell id="AEnNqYOokj_pp7Sw3cZk-69" value="&lt;font style=&quot;font-size: 20px;&quot;&gt;eth0&lt;br&gt;&lt;/font&gt;" style="text;html=1;align=center;verticalAlign=middle;resizable=0;points=[];autosize=1;strokeColor=none;fillColor=none;" parent="1" vertex="1">
          <mxGeometry x="729.75" y="2473" width="57" height="36" as="geometry" />
        </mxCell>
        <mxCell id="AEnNqYOokj_pp7Sw3cZk-70" value="" style="fontColor=#0066CC;verticalAlign=top;verticalLabelPosition=bottom;labelPosition=center;align=center;html=1;outlineConnect=0;fillColor=#CCCCCC;strokeColor=#6881B3;gradientColor=none;gradientDirection=north;strokeWidth=2;shape=mxgraph.networks.switch;" parent="1" vertex="1">
          <mxGeometry x="760.75" y="2443" width="100" height="30" as="geometry" />
        </mxCell>
        <mxCell id="AEnNqYOokj_pp7Sw3cZk-71" value="" style="endArrow=none;html=1;rounded=0;strokeWidth=2;" parent="1" edge="1">
          <mxGeometry width="50" height="50" relative="1" as="geometry">
            <mxPoint x="608.75" y="2511" as="sourcePoint" />
            <mxPoint x="741" y="2463" as="targetPoint" />
          </mxGeometry>
        </mxCell>
        <mxCell id="AEnNqYOokj_pp7Sw3cZk-72" value="" style="endArrow=none;html=1;rounded=0;strokeWidth=2;entryX=0.07;entryY=0.037;entryDx=0;entryDy=0;entryPerimeter=0;" parent="1" edge="1">
          <mxGeometry width="50" height="50" relative="1" as="geometry">
            <mxPoint x="994" y="2495" as="sourcePoint" />
            <mxPoint x="876.25" y="2464" as="targetPoint" />
          </mxGeometry>
        </mxCell>
        <mxCell id="AEnNqYOokj_pp7Sw3cZk-73" value="&lt;font style=&quot;font-size: 22px;&quot;&gt;h1&lt;/font&gt;" style="text;html=1;align=center;verticalAlign=middle;resizable=0;points=[];autosize=1;strokeColor=#82b366;fillColor=#d5e8d4;" parent="1" vertex="1">
          <mxGeometry x="545" y="2509.28" width="42" height="38" as="geometry" />
        </mxCell>
        <mxCell id="AEnNqYOokj_pp7Sw3cZk-74" value="&lt;font style=&quot;&quot;&gt;&lt;font style=&quot;font-size: 22px;&quot;&gt;h2&lt;/font&gt;&lt;br&gt;&lt;/font&gt;" style="text;html=1;align=center;verticalAlign=middle;resizable=0;points=[];autosize=1;strokeColor=#82b366;fillColor=#d5e8d4;" parent="1" vertex="1">
          <mxGeometry x="1021.75" y="2505.28" width="42" height="38" as="geometry" />
        </mxCell>
        <mxCell id="AEnNqYOokj_pp7Sw3cZk-75" value="" style="image;sketch=0;aspect=fixed;html=1;points=[];align=center;fontSize=12;image=img/lib/mscae/Managed_Desktop.svg;" parent="1" vertex="1">
          <mxGeometry x="535.25" y="2469" width="61.5" height="44.28" as="geometry" />
        </mxCell>
        <mxCell id="AEnNqYOokj_pp7Sw3cZk-76" value="" style="image;sketch=0;aspect=fixed;html=1;points=[];align=center;fontSize=12;image=img/lib/mscae/Managed_Desktop.svg;" parent="1" vertex="1">
          <mxGeometry x="1011.75" y="2464" width="61.5" height="44.28" as="geometry" />
        </mxCell>
        <UserObject label="10.0.0.1&#xa;" id="AEnNqYOokj_pp7Sw3cZk-77">
          <mxCell style="text;whiteSpace=wrap;fontSize=20;" parent="1" vertex="1">
            <mxGeometry x="827.75" y="2494" width="79" height="35" as="geometry" />
          </mxCell>
        </UserObject>
        <mxCell id="AEnNqYOokj_pp7Sw3cZk-78" value="&lt;font style=&quot;font-size: 20px;&quot;&gt;eth0&lt;br&gt;&lt;/font&gt;" style="text;html=1;align=center;verticalAlign=middle;resizable=0;points=[];autosize=1;strokeColor=none;fillColor=none;" parent="1" vertex="1">
          <mxGeometry x="599.25" y="2505.2799999999997" width="57" height="36" as="geometry" />
        </mxCell>
        <mxCell id="AEnNqYOokj_pp7Sw3cZk-79" value="&lt;font style=&quot;font-size: 20px;&quot;&gt;eth0&lt;br&gt;&lt;/font&gt;" style="text;html=1;align=center;verticalAlign=middle;resizable=0;points=[];autosize=1;strokeColor=none;fillColor=none;" parent="1" vertex="1">
          <mxGeometry x="954.75" y="2496.28" width="57" height="36" as="geometry" />
        </mxCell>
        <mxCell id="AEnNqYOokj_pp7Sw3cZk-80" value="&lt;font style=&quot;font-size: 20px;&quot;&gt;eth1&lt;br&gt;&lt;/font&gt;" style="text;html=1;align=center;verticalAlign=middle;resizable=0;points=[];autosize=1;strokeColor=none;fillColor=none;" parent="1" vertex="1">
          <mxGeometry x="823.75" y="2473" width="57" height="36" as="geometry" />
        </mxCell>
        <UserObject label="10.0.0.11/24" id="AEnNqYOokj_pp7Sw3cZk-85">
          <mxCell style="text;whiteSpace=wrap;fontSize=20;" parent="1" vertex="1">
            <mxGeometry x="506.5" y="2545.28" width="130.5" height="36" as="geometry" />
          </mxCell>
        </UserObject>
        <UserObject label="10.0.0.12/24" id="AEnNqYOokj_pp7Sw3cZk-86">
          <mxCell style="text;whiteSpace=wrap;fontSize=20;" parent="1" vertex="1">
            <mxGeometry x="990.75" y="2545.28" width="130.5" height="36" as="geometry" />
          </mxCell>
        </UserObject>
        <UserObject label="10.0.0.1&#xa;" id="AEnNqYOokj_pp7Sw3cZk-87">
          <mxCell style="text;whiteSpace=wrap;fontSize=20;" parent="1" vertex="1">
            <mxGeometry x="706" y="2494" width="79" height="35" as="geometry" />
          </mxCell>
        </UserObject>
        <mxCell id="AEnNqYOokj_pp7Sw3cZk-88" value="" style="fontColor=#0066CC;verticalAlign=top;verticalLabelPosition=bottom;labelPosition=center;align=center;html=1;outlineConnect=0;fillColor=#CCCCCC;strokeColor=#6881B3;gradientColor=none;gradientDirection=north;strokeWidth=2;shape=mxgraph.networks.monitor;" parent="1" vertex="1">
          <mxGeometry x="771.75" y="2133" width="80" height="65" as="geometry" />
        </mxCell>
        <mxCell id="AEnNqYOokj_pp7Sw3cZk-89" value="&lt;font style=&quot;font-size: 20px;&quot;&gt;Controller&lt;br&gt;&lt;/font&gt;" style="text;html=1;align=center;verticalAlign=middle;resizable=0;points=[];autosize=1;strokeColor=#d79b00;fillColor=#ffe6cc;" parent="1" vertex="1">
          <mxGeometry x="759.25" y="2097" width="105" height="36" as="geometry" />
        </mxCell>
        <UserObject label="20.0.0.0/24" id="AEnNqYOokj_pp7Sw3cZk-90">
          <mxCell style="text;whiteSpace=wrap;fontSize=20;" parent="1" vertex="1">
            <mxGeometry x="746.5" y="2276" width="130.5" height="36" as="geometry" />
          </mxCell>
        </UserObject>
        <mxCell id="AEnNqYOokj_pp7Sw3cZk-91" value="" style="endArrow=none;html=1;rounded=0;strokeWidth=2;fillColor=#dae8fc;strokeColor=#6c8ebf;exitX=0.5;exitY=0.112;exitDx=0;exitDy=0;exitPerimeter=0;" parent="1" target="AEnNqYOokj_pp7Sw3cZk-88" edge="1">
          <mxGeometry width="50" height="50" relative="1" as="geometry">
            <mxPoint x="812" y="2243" as="sourcePoint" />
            <mxPoint x="801.75" y="2203" as="targetPoint" />
            <Array as="points" />
          </mxGeometry>
        </mxCell>
        <mxCell id="AEnNqYOokj_pp7Sw3cZk-92" value="&lt;font style=&quot;font-size: 20px;&quot;&gt;eth0&lt;br&gt;&lt;/font&gt;" style="text;html=1;align=center;verticalAlign=middle;resizable=0;points=[];autosize=1;strokeColor=none;fillColor=none;" parent="1" vertex="1">
          <mxGeometry x="820" y="2201" width="57" height="36" as="geometry" />
        </mxCell>
        <mxCell id="AEnNqYOokj_pp7Sw3cZk-93" value="&lt;font style=&quot;font-size: 20px;&quot;&gt;.100&lt;br&gt;&lt;/font&gt;" style="text;html=1;align=center;verticalAlign=middle;resizable=0;points=[];autosize=1;strokeColor=none;fillColor=none;" parent="1" vertex="1">
          <mxGeometry x="750" y="2201" width="57" height="36" as="geometry" />
        </mxCell>
        <mxCell id="AEnNqYOokj_pp7Sw3cZk-95" value="" style="endArrow=none;html=1;rounded=0;strokeWidth=2;fillColor=#dae8fc;strokeColor=#6c8ebf;entryX=0.518;entryY=0.947;entryDx=0;entryDy=0;entryPerimeter=0;" parent="1" target="AEnNqYOokj_pp7Sw3cZk-94" edge="1">
          <mxGeometry width="50" height="50" relative="1" as="geometry">
            <mxPoint x="811" y="2434" as="sourcePoint" />
            <mxPoint x="823.75" y="2269.28" as="targetPoint" />
          </mxGeometry>
        </mxCell>
        <mxCell id="AEnNqYOokj_pp7Sw3cZk-96" value="&lt;font style=&quot;font-size: 20px;&quot;&gt;eth2&lt;br&gt;&lt;/font&gt;" style="text;html=1;align=center;verticalAlign=middle;resizable=0;points=[];autosize=1;strokeColor=none;fillColor=none;" parent="1" vertex="1">
          <mxGeometry x="811.5" y="2403" width="57" height="36" as="geometry" />
        </mxCell>
        <mxCell id="AEnNqYOokj_pp7Sw3cZk-97" value="&lt;font style=&quot;font-size: 20px;&quot;&gt;.1&lt;br&gt;&lt;/font&gt;" style="text;html=1;align=center;verticalAlign=middle;resizable=0;points=[];autosize=1;strokeColor=none;fillColor=none;" parent="1" vertex="1">
          <mxGeometry x="776.5" y="2403" width="35" height="36" as="geometry" />
        </mxCell>
      </root>
    </mxGraphModel>
  </diagram>
</mxfile>
